<svg width="24" height="20" viewBox="0 0 24 20" fill="none" xmlns="http://www.w3.org/2000/svg">
<path d="M18.0082 0.916992C15.8799 0.916992 13.588 1.35355 12.0055 2.5541C10.4229 1.35355 8.13097 0.916992 6.00273 0.916992C4.42019 0.916992 2.73943 1.1571 1.33151 1.7792C0.534789 2.13937 0 2.91426 0 3.7983V16.1094C0 17.5282 1.33151 18.5759 2.70668 18.2267C3.77626 17.9538 4.91132 17.8338 6.00273 17.8338C7.70532 17.8338 9.51705 18.1175 10.9795 18.8379C11.6344 19.1653 12.3765 19.1653 13.0205 18.8379C14.4829 18.1066 16.2947 17.8338 17.9973 17.8338C19.0887 17.8338 20.2237 17.9538 21.2933 18.2267C22.6685 18.5868 24 17.5391 24 16.1094V3.7983C24 2.91426 23.4652 2.13937 22.6685 1.7792C21.2715 1.1571 19.5907 0.916992 18.0082 0.916992ZM21.8281 14.8106C21.8281 15.4982 21.1951 16.0002 20.5184 15.8802C19.6999 15.7274 18.8486 15.6619 18.0082 15.6619C16.1528 15.6619 13.4789 16.3713 12.0055 17.299V4.73691C13.4789 3.80922 16.1528 3.0998 18.0082 3.0998C19.0123 3.0998 20.0055 3.19803 20.955 3.4054C21.457 3.51454 21.8281 3.96201 21.8281 4.47497V14.8106Z" fill="#F9F9F9"/>
</svg>
