<svg width="24" height="24" viewBox="0 0 24 24" fill="none" xmlns="http://www.w3.org/2000/svg">
<path d="M20.668 12C20.668 11.724 20.656 11.46 20.632 11.184L22.864 9.492C23.344 9.132 23.476 8.46 23.176 7.932L20.932 4.056C20.632 3.528 19.984 3.312 19.432 3.552L16.852 4.644C16.408 4.332 15.94 4.056 15.448 3.828L15.1 1.056C15.028 0.456 14.512 0 13.912 0H9.43596C8.82396 0 8.30796 0.456 8.23596 1.056L7.88796 3.828C7.39596 4.056 6.92796 4.332 6.48396 4.644L3.90396 3.552C3.35196 3.312 2.70396 3.528 2.40396 4.056L0.159958 7.944C-0.140042 8.472 -0.00804248 9.132 0.471958 9.504L2.70396 11.196C2.67996 11.46 2.66796 11.724 2.66796 12C2.66796 12.276 2.67996 12.54 2.70396 12.816L0.471958 14.508C-0.00804248 14.868 -0.140042 15.54 0.159958 16.068L2.40396 19.944C2.70396 20.472 3.35196 20.688 3.90396 20.448L6.48396 19.356C6.92796 19.668 7.39596 19.944 7.88796 20.172L8.23596 22.944C8.30796 23.544 8.82396 24 9.42396 24H13.9C14.5 24 15.016 23.544 15.088 22.944L15.436 20.172C15.928 19.944 16.396 19.668 16.84 19.356L19.42 20.448C19.972 20.688 20.62 20.472 20.92 19.944L23.164 16.068C23.464 15.54 23.332 14.88 22.852 14.508L20.62 12.816C20.656 12.54 20.668 12.276 20.668 12ZM11.716 16.2C9.39996 16.2 7.51596 14.316 7.51596 12C7.51596 9.684 9.39996 7.8 11.716 7.8C14.032 7.8 15.916 9.684 15.916 12C15.916 14.316 14.032 16.2 11.716 16.2Z" fill="#F9F9F9"/>
</svg>
