<svg width="24" height="20" viewBox="0 0 24 20" fill="none" xmlns="http://www.w3.org/2000/svg">
<path d="M24 4.5999C24 2.2839 18.624 0.399902 12 0.399902C5.376 0.399902 0 2.2839 0 4.5999C0 6.7719 4.74 8.5719 10.8 8.7759V13.5999H8.82C7.836 13.5999 6.96 14.1999 6.588 15.1119L5.4 18.0759C5.124 18.8079 5.652 19.5999 6.444 19.5999C6.9 19.5999 7.308 19.3239 7.476 18.9039L8.64 15.9999H15.36L16.524 18.9039C16.692 19.3239 17.1 19.5999 17.556 19.5999C18.348 19.5999 18.888 18.8079 18.588 18.0759L17.4 15.1119C17.04 14.1999 16.152 13.5999 15.18 13.5999H13.2V8.7759C19.26 8.5719 24 6.7719 24 4.5999Z" fill="#F9F9F9"/>
</svg>
