<svg width="24" height="24" viewBox="0 0 24 24" fill="none" xmlns="http://www.w3.org/2000/svg">
<path fill-rule="evenodd" clip-rule="evenodd" d="M21.3382 8.95632L24 12L21.3382 15.0436L21.7091 19.069L17.7709 19.9636L15.7091 23.4436L12 21.8509L8.29091 23.4545L6.22909 19.9745L2.29091 19.08L2.66182 15.0436L0 12L2.66182 8.94541L2.29091 4.90905L6.22909 4.02541L8.29091 0.54541L12 2.13814L15.7091 0.54541L17.7709 4.03632L21.7091 4.93086L21.3382 8.95632ZM9 11C10.1046 11 11 10.1046 11 9C11 7.89543 10.1046 7 9 7C7.89543 7 7 7.89543 7 9C7 10.1046 7.89543 11 9 11ZM6.93934 17.7877C6.35355 17.2019 6.35355 16.2522 6.93934 15.6664L15.6666 6.93912C16.2524 6.35333 17.2021 6.35333 17.7879 6.93912C18.3737 7.5249 18.3737 8.47465 17.7879 9.06044L9.06066 17.7877C8.47487 18.3735 7.52513 18.3735 6.93934 17.7877ZM16 18C17.1046 18 18 17.1046 18 16C18 14.8954 17.1046 14 16 14C14.8954 14 14 14.8954 14 16C14 17.1046 14.8954 18 16 18Z" fill="#F9F9F9"/>
</svg>
