<svg width="20" height="24" viewBox="0 0 20 24" fill="none" xmlns="http://www.w3.org/2000/svg">
<path d="M12.708 0.708C12.252 0.252 11.64 0 11.004 0H2.4C1.08 0 0 1.08 0 2.4V21.6C0 22.92 1.068 24 2.388 24H16.8C18.12 24 19.2 22.92 19.2 21.6V8.196C19.2 7.56 18.948 6.948 18.492 6.504L12.708 0.708ZM13.2 19.2H6C5.34 19.2 4.8 18.66 4.8 18C4.8 17.34 5.34 16.8 6 16.8H13.2C13.86 16.8 14.4 17.34 14.4 18C14.4 18.66 13.86 19.2 13.2 19.2ZM13.2 14.4H6C5.34 14.4 4.8 13.86 4.8 13.2C4.8 12.54 5.34 12 6 12H13.2C13.86 12 14.4 12.54 14.4 13.2C14.4 13.86 13.86 14.4 13.2 14.4ZM10.8 7.2V1.8L17.4 8.4H12C11.34 8.4 10.8 7.86 10.8 7.2Z" fill="#F9F9F9"/>
</svg>
