<svg width="22" height="24" viewBox="0 0 22 24" fill="none" xmlns="http://www.w3.org/2000/svg">
<path d="M19.2 2.4H18V1.2C18 0.54 17.46 0 16.8 0C16.14 0 15.6 0.54 15.6 1.2V2.4H6V1.2C6 0.54 5.46 0 4.8 0C4.14 0 3.6 0.54 3.6 1.2V2.4H2.4C1.068 2.4 0 3.48 0 4.8V21.6C0 22.92 1.08 24 2.4 24H19.2C20.52 24 21.6 22.92 21.6 21.6V4.8C21.6 3.48 20.52 2.4 19.2 2.4ZM10.8 6C12.792 6 14.4 7.608 14.4 9.6C14.4 11.592 12.792 13.2 10.8 13.2C8.808 13.2 7.2 11.592 7.2 9.6C7.2 7.608 8.808 6 10.8 6ZM18 20.4H3.6V19.2C3.6 16.8 8.4 15.48 10.8 15.48C13.2 15.48 18 16.8 18 19.2V20.4Z" fill="#F9F9F9"/>
</svg>
