<svg width="24" height="20" viewBox="0 0 24 20" fill="none" xmlns="http://www.w3.org/2000/svg">
<path d="M15.56 1.99984V7.99984C15.56 8.73317 14.96 9.33317 14.2267 9.33317H9.78667C9.05333 9.33317 8.45333 8.73317 8.45333 7.99984V1.99984C8.45333 1.2665 9.05333 0.666504 9.78667 0.666504H14.2267C14.96 0.666504 15.56 1.2665 15.56 1.99984ZM18.2267 9.33317H22.6667C23.4 9.33317 24 8.73317 24 7.99984V1.99984C24 1.2665 23.4 0.666504 22.6667 0.666504H18.2267C17.4933 0.666504 16.8933 1.2665 16.8933 1.99984V7.99984C16.8933 8.73317 17.48 9.33317 18.2267 9.33317ZM15.56 17.9998V11.9998C15.56 11.2665 14.96 10.6665 14.2267 10.6665H9.78667C9.05333 10.6665 8.45333 11.2665 8.45333 11.9998V17.9998C8.45333 18.7332 9.05333 19.3332 9.78667 19.3332H14.2267C14.96 19.3332 15.56 18.7332 15.56 17.9998ZM16.8933 11.9998V17.9998C16.8933 18.7332 17.4933 19.3332 18.2267 19.3332H22.6667C23.4 19.3332 24 18.7332 24 17.9998V11.9998C24 11.2665 23.4 10.6665 22.6667 10.6665H18.2267C17.48 10.6665 16.8933 11.2665 16.8933 11.9998ZM5.77333 10.6665H1.33333C0.6 10.6665 0 11.2665 0 11.9998V17.9998C0 18.7332 0.6 19.3332 1.33333 19.3332H5.77333C6.50667 19.3332 7.10667 18.7332 7.10667 17.9998V11.9998C7.10667 11.2665 6.52 10.6665 5.77333 10.6665ZM7.10667 7.99984V1.99984C7.10667 1.2665 6.50667 0.666504 5.77333 0.666504H1.33333C0.6 0.666504 0 1.2665 0 1.99984V7.99984C0 8.73317 0.6 9.33317 1.33333 9.33317H5.77333C6.52 9.33317 7.10667 8.73317 7.10667 7.99984Z" fill="#F9F9F9"/>
</svg>
