<svg width="24" height="18" viewBox="0 0 24 18" fill="none" xmlns="http://www.w3.org/2000/svg">
<path fill-rule="evenodd" clip-rule="evenodd" d="M8.72727 10.0913C5.81455 10.0913 0 11.5531 0 14.4549V16.6368C0 17.2368 0.490909 17.7277 1.09091 17.7277H16.3636C16.9636 17.7277 17.4545 17.2368 17.4545 16.6368V14.4549C17.4545 11.5531 11.64 10.0913 8.72727 10.0913Z" fill="#F9F9F9"/>
<path fill-rule="evenodd" clip-rule="evenodd" d="M17.0945 10.2329C18.5891 11.2475 19.6364 12.622 19.6364 14.4547V17.7275H22.9091C23.5091 17.7275 24 17.2365 24 16.6365V14.4547C24 12.0765 20.1055 10.6693 17.0945 10.2329Z" fill="#F9F9F9"/>
<path d="M8.72728 9.00022C11.1373 9.00022 13.0909 7.04656 13.0909 4.63659C13.0909 2.22662 11.1373 0.272949 8.72728 0.272949C6.31731 0.272949 4.36365 2.22662 4.36365 4.63659C4.36365 7.04656 6.31731 9.00022 8.72728 9.00022Z" fill="#F9F9F9"/>
<path fill-rule="evenodd" clip-rule="evenodd" d="M15.2727 9.00022C17.6836 9.00022 19.6363 7.04749 19.6363 4.63659C19.6363 2.22568 17.6836 0.272949 15.2727 0.272949C14.76 0.272949 14.28 0.38204 13.8218 0.534767C14.7272 1.6584 15.2727 3.08749 15.2727 4.63659C15.2727 6.18568 14.7272 7.61477 13.8218 8.7384C14.28 8.89113 14.76 9.00022 15.2727 9.00022Z" fill="#F9F9F9"/>
</svg>
