<svg width="24" height="24" viewBox="0 0 24 24" fill="none" xmlns="http://www.w3.org/2000/svg">
<path d="M12 0C5.376 0 0 5.376 0 12C0 18.624 5.376 24 12 24C18.624 24 24 18.624 24 12C24 5.376 18.624 0 12 0ZM13.056 18.912V19.344C13.056 19.92 12.588 20.4 12 20.4C11.424 20.4 10.944 19.932 10.944 19.344V18.84C10.188 18.66 8.628 18.108 7.716 16.32C7.44 15.792 7.704 15.132 8.256 14.904L8.34 14.868C8.832 14.664 9.384 14.868 9.636 15.336C10.02 16.068 10.776 16.98 12.18 16.98C13.296 16.98 14.556 16.404 14.556 15.048C14.556 13.896 13.716 13.296 11.82 12.612C10.5 12.144 7.8 11.376 7.8 8.64C7.8 8.52 7.812 5.76 10.944 5.088V4.656C10.944 4.068 11.424 3.6 12 3.6C12.576 3.6 13.056 4.068 13.056 4.656V5.1C14.34 5.328 15.156 6.012 15.648 6.66C16.056 7.188 15.84 7.956 15.216 8.22C14.784 8.4 14.28 8.256 13.992 7.884C13.656 7.428 13.056 6.96 12.072 6.96C11.232 6.96 9.9 7.404 9.9 8.628C9.9 9.768 10.932 10.2 13.068 10.908C15.948 11.904 16.68 13.368 16.68 15.048C16.68 18.204 13.68 18.804 13.056 18.912Z" fill="#F9F9F9"/>
</svg>
