<svg width="20" height="24" viewBox="0 0 20 24" fill="none" xmlns="http://www.w3.org/2000/svg">
<path d="M18.492 6.492L12.696 0.696C12.252 0.252 11.64 0 11.004 0H2.4C1.08 0 0.0120003 1.08 0.0120003 2.4L0 21.6C0 22.92 1.068 24 2.388 24H16.8C18.12 24 19.2 22.92 19.2 21.6V8.196C19.2 7.56 18.948 6.948 18.492 6.492ZM12 13.2C12.66 13.2 13.2 13.74 13.2 14.4V18C13.2 18.66 12.66 19.2 12 19.2H10.8C10.8 19.86 10.26 20.4 9.6 20.4C8.94 20.4 8.4 19.86 8.4 19.2H7.2C6.54 19.2 6 18.66 6 18C6 17.34 6.54 16.8 7.2 16.8H10.8V15.6H7.2C6.54 15.6 6 15.06 6 14.4V10.8C6 10.14 6.54 9.6 7.2 9.6H8.4C8.4 8.94 8.94 8.4 9.6 8.4C10.26 8.4 10.8 8.94 10.8 9.6H12C12.66 9.6 13.2 10.14 13.2 10.8C13.2 11.46 12.66 12 12 12H8.4V13.2H12ZM12 7.2C11.34 7.2 10.8 6.66 10.8 6V1.8L16.2 7.2H12Z" fill="#F9F9F9"/>
</svg>
