<svg width="14" height="16" viewBox="0 0 14 16" fill="none" xmlns="http://www.w3.org/2000/svg">
<path d="M11.2317 5.64706H9.73522V0.941176C9.73522 0.423529 9.31169 0 8.79404 0H5.02934C4.51169 0 4.08816 0.423529 4.08816 0.941176V5.64706H2.59169C1.75404 5.64706 1.33051 6.66353 1.92346 7.25647L6.24346 11.5765C6.61051 11.9435 7.20346 11.9435 7.57051 11.5765L11.8905 7.25647C12.4835 6.66353 12.0693 5.64706 11.2317 5.64706ZM0.323456 15.0588C0.323456 15.5765 0.746985 16 1.26463 16H12.5588C13.0764 16 13.4999 15.5765 13.4999 15.0588C13.4999 14.5412 13.0764 14.1176 12.5588 14.1176H1.26463C0.746985 14.1176 0.323456 14.5412 0.323456 15.0588Z" fill="#F9F9F9"/>
</svg>
