<svg width="14" height="16" viewBox="0 0 14 16" fill="none" xmlns="http://www.w3.org/2000/svg">
<path d="M2.81424 6.35709H4.34746V11.1785C4.34746 11.7089 4.78139 12.1428 5.31175 12.1428H9.16891C9.69928 12.1428 10.1332 11.7089 10.1332 11.1785V6.35709H11.6664C12.5246 6.35709 12.9586 5.31565 12.3511 4.70815L7.92498 0.282055C7.54891 -0.0940184 6.9414 -0.0940184 6.56533 0.282055L2.13923 4.70815C1.53173 5.31565 1.95602 6.35709 2.81424 6.35709ZM0.499939 15.0357C0.499939 15.5661 0.93387 16 1.46423 16H13.0357C13.5661 16 14 15.5661 14 15.0357C14 14.5053 13.5661 14.0714 13.0357 14.0714H1.46423C0.93387 14.0714 0.499939 14.5053 0.499939 15.0357Z" fill="#F9F9F9"/>
</svg>
