<svg width="16" height="12" viewBox="0 0 16 12" fill="none" xmlns="http://www.w3.org/2000/svg">
<path d="M8 0.546875C4.36364 0.546875 1.25818 2.80869 0 6.00142C1.25818 9.19415 4.36364 11.456 8 11.456C11.6364 11.456 14.7418 9.19415 16 6.00142C14.7418 2.80869 11.6364 0.546875 8 0.546875ZM8 9.63778C5.99273 9.63778 4.36364 8.00869 4.36364 6.00142C4.36364 3.99415 5.99273 2.36506 8 2.36506C10.0073 2.36506 11.6364 3.99415 11.6364 6.00142C11.6364 8.00869 10.0073 9.63778 8 9.63778ZM8 3.8196C6.79273 3.8196 5.81818 4.79415 5.81818 6.00142C5.81818 7.20869 6.79273 8.18324 8 8.18324C9.20727 8.18324 10.1818 7.20869 10.1818 6.00142C10.1818 4.79415 9.20727 3.8196 8 3.8196Z" fill="#F9F9F9"/>
</svg>
