<svg width="16" height="14" viewBox="0 0 16 14" fill="none" xmlns="http://www.w3.org/2000/svg">
<path d="M8 2.97776C10.0073 2.97776 11.6364 4.60685 11.6364 6.61412C11.6364 6.98503 11.5636 7.34139 11.4618 7.67594L13.6873 9.90139C14.6982 9.00685 15.4982 7.88685 16 6.60685C14.7418 3.42139 11.6364 1.15957 8 1.15957C7.07636 1.15957 6.18909 1.30503 5.35273 1.57412L6.93091 3.1523C7.27273 3.05048 7.62909 2.97776 8 2.97776ZM1.24364 0.548665C0.96 0.832301 0.96 1.29048 1.24364 1.57412L2.67636 3.00685C1.49818 3.94503 0.56 5.18139 0 6.61412C1.25818 9.80685 4.36364 12.0687 8 12.0687C9.10545 12.0687 10.16 11.8505 11.1345 11.4723L13.1127 13.4505C13.3964 13.7341 13.8545 13.7341 14.1382 13.4505C14.4218 13.1668 14.4218 12.7087 14.1382 12.425L2.27636 0.548665C1.99273 0.265028 1.52727 0.265028 1.24364 0.548665ZM8 10.2505C5.99273 10.2505 4.36364 8.62139 4.36364 6.61412C4.36364 6.05412 4.49455 5.52321 4.72 5.05775L5.86182 6.19957C5.84 6.33048 5.81818 6.46866 5.81818 6.61412C5.81818 7.82139 6.79273 8.79594 8 8.79594C8.14545 8.79594 8.27636 8.77412 8.41455 8.74503L9.55636 9.88685C9.08364 10.1196 8.56 10.2505 8 10.2505ZM10.16 6.37412C10.0509 5.35594 9.25091 4.56321 8.24 4.45412L10.16 6.37412Z" fill="#F9F9F9"/>
</svg>
