<svg width="388" height="32" viewBox="0 0 388 32" fill="none" xmlns="http://www.w3.org/2000/svg">
<path d="M7.03318 21.192C6.21184 21.192 5.45451 21.0533 4.76118 20.776C4.06784 20.488 3.46518 20.0933 2.95318 19.592C2.44118 19.08 2.04118 18.4773 1.75318 17.784C1.47584 17.0907 1.33718 16.3333 1.33718 15.512C1.33718 14.6907 1.48118 13.9333 1.76918 13.24C2.05718 12.5467 2.45184 11.9493 2.95318 11.448C3.46518 10.936 4.06784 10.5413 4.76118 10.264C5.45451 9.976 6.21184 9.832 7.03318 9.832C7.85451 9.832 8.61184 9.976 9.30518 10.264C9.99851 10.5413 10.5958 10.936 11.0972 11.448C11.6092 11.9493 12.0038 12.5467 12.2812 13.24C12.5692 13.9333 12.7132 14.6907 12.7132 15.512C12.7132 16.3333 12.5692 17.0907 12.2812 17.784C12.0038 18.4773 11.6092 19.08 11.0972 19.592C10.5958 20.0933 9.99851 20.488 9.30518 20.776C8.61184 21.0533 7.85451 21.192 7.03318 21.192ZM7.04918 18.888C6.37718 18.888 5.81718 18.7707 5.36918 18.536C4.93184 18.2907 4.60651 17.9173 4.39318 17.416C4.17984 16.9147 4.07318 16.28 4.07318 15.512C4.07318 14.7547 4.17984 14.1253 4.39318 13.624C4.60651 13.1227 4.93184 12.7547 5.36918 12.52C5.81718 12.2747 6.37718 12.152 7.04918 12.152C7.65718 12.152 8.15851 12.2533 8.55318 12.456C8.95851 12.6587 9.25185 12.9573 9.43318 13.352C9.62518 13.7467 9.72118 14.232 9.72118 14.808H8.34518C8.34518 14.456 8.30251 14.168 8.21718 13.944C8.14251 13.72 8.00918 13.5547 7.81718 13.448C7.63584 13.3413 7.37984 13.288 7.04918 13.288C6.50518 13.288 6.11051 13.464 5.86518 13.816C5.61984 14.1573 5.49718 14.6747 5.49718 15.368V15.656C5.49718 16.1467 5.55051 16.5467 5.65718 16.856C5.76384 17.1653 5.92918 17.3947 6.15318 17.544C6.38784 17.6933 6.68118 17.768 7.03318 17.768C7.36384 17.768 7.63051 17.7093 7.83318 17.592C8.03584 17.4747 8.17984 17.304 8.26518 17.08C8.36118 16.8453 8.40918 16.568 8.40918 16.248H9.72118C9.72118 16.7387 9.62518 17.1867 9.43318 17.592C9.25185 17.9867 8.96385 18.3013 8.56918 18.536C8.18518 18.7707 7.67851 18.888 7.04918 18.888ZM7.03318 20.248C7.93984 20.248 8.73984 20.0453 9.43318 19.64C10.1372 19.224 10.6918 18.6587 11.0972 17.944C11.5025 17.2293 11.7052 16.4133 11.7052 15.496C11.7052 14.5893 11.5025 13.7787 11.0972 13.064C10.6918 12.3493 10.1372 11.7893 9.43318 11.384C8.73984 10.9787 7.93984 10.776 7.03318 10.776C6.12651 10.776 5.31584 10.9787 4.60118 11.384C3.89718 11.7893 3.34251 12.3493 2.93718 13.064C2.54251 13.7787 2.34518 14.5893 2.34518 15.496C2.34518 16.4133 2.54784 17.2293 2.95318 17.944C3.35851 18.6587 3.91318 19.224 4.61718 19.64C5.32118 20.0453 6.12651 20.248 7.03318 20.248ZM17.1732 21V20.424C17.1732 19.944 17.2585 19.5067 17.4292 19.112C17.5998 18.7173 17.8345 18.3547 18.1332 18.024C18.4318 17.6933 18.7625 17.3787 19.1252 17.08C19.4878 16.7813 19.8612 16.4933 20.2452 16.216C20.6825 15.8853 21.0932 15.56 21.4772 15.24C21.8718 14.92 22.1918 14.5787 22.4372 14.216C22.6825 13.8427 22.8052 13.432 22.8052 12.984C22.8052 12.7707 22.7518 12.5573 22.6452 12.344C22.5385 12.1307 22.3678 11.9547 22.1332 11.816C21.9092 11.6667 21.6052 11.592 21.2212 11.592C20.8265 11.592 20.5012 11.6613 20.2452 11.8C19.9892 11.928 19.7918 12.1147 19.6532 12.36C19.5252 12.5947 19.4612 12.888 19.4612 13.24V13.816H17.3172C17.3065 13.7627 17.2958 13.688 17.2852 13.592C17.2745 13.496 17.2692 13.3787 17.2692 13.24C17.2692 12.4613 17.4452 11.8213 17.7972 11.32C18.1598 10.8187 18.6452 10.4453 19.2532 10.2C19.8718 9.95467 20.5705 9.832 21.3492 9.832C22.0532 9.832 22.6398 9.93333 23.1092 10.136C23.5892 10.328 23.9732 10.5893 24.2612 10.92C24.5492 11.24 24.7518 11.592 24.8692 11.976C24.9972 12.3493 25.0612 12.712 25.0612 13.064C25.0612 13.5653 24.9705 14.024 24.7892 14.44C24.6078 14.856 24.3625 15.2453 24.0532 15.608C23.7438 15.9707 23.3758 16.3227 22.9492 16.664C22.5225 16.9947 22.0692 17.3253 21.5892 17.656C21.3438 17.8267 21.1092 17.992 20.8852 18.152C20.6718 18.312 20.4852 18.4667 20.3252 18.616C20.1758 18.7547 20.0585 18.8933 19.9732 19.032H25.1412V21H17.1732ZM30.6564 21.192C29.9951 21.192 29.4138 21.096 28.9124 20.904C28.4111 20.7013 27.9898 20.3813 27.6484 19.944C27.3178 19.496 27.0671 18.9093 26.8964 18.184C26.7364 17.4587 26.6564 16.568 26.6564 15.512C26.6564 14.4453 26.7364 13.5547 26.8964 12.84C27.0671 12.1147 27.3178 11.528 27.6484 11.08C27.9898 10.632 28.4111 10.312 28.9124 10.12C29.4138 9.928 29.9951 9.832 30.6564 9.832C31.3284 9.832 31.9098 9.928 32.4004 10.12C32.8911 10.312 33.3018 10.632 33.6324 11.08C33.9738 11.528 34.2244 12.1147 34.3844 12.84C34.5551 13.5547 34.6404 14.4453 34.6404 15.512C34.6404 16.568 34.5551 17.4587 34.3844 18.184C34.2244 18.9093 33.9738 19.496 33.6324 19.944C33.3018 20.3813 32.8911 20.7013 32.4004 20.904C31.9098 21.096 31.3284 21.192 30.6564 21.192ZM30.6564 19.464C31.1258 19.464 31.4831 19.3413 31.7284 19.096C31.9738 18.84 32.1444 18.456 32.2404 17.944C32.3364 17.432 32.3844 16.792 32.3844 16.024V15.032C32.3844 14.2533 32.3364 13.608 32.2404 13.096C32.1444 12.5733 31.9738 12.184 31.7284 11.928C31.4831 11.672 31.1258 11.544 30.6564 11.544C30.1871 11.544 29.8244 11.672 29.5684 11.928C29.3231 12.184 29.1524 12.568 29.0564 13.08C28.9604 13.5813 28.9124 14.2213 28.9124 15V15.992C28.9124 16.7707 28.9604 17.4213 29.0564 17.944C29.1524 18.456 29.3231 18.84 29.5684 19.096C29.8244 19.3413 30.1871 19.464 30.6564 19.464ZM36.2201 21V20.424C36.2201 19.944 36.3054 19.5067 36.4761 19.112C36.6467 18.7173 36.8814 18.3547 37.1801 18.024C37.4787 17.6933 37.8094 17.3787 38.1721 17.08C38.5347 16.7813 38.9081 16.4933 39.2921 16.216C39.7294 15.8853 40.1401 15.56 40.5241 15.24C40.9187 14.92 41.2387 14.5787 41.4841 14.216C41.7294 13.8427 41.8521 13.432 41.8521 12.984C41.8521 12.7707 41.7987 12.5573 41.6921 12.344C41.5854 12.1307 41.4147 11.9547 41.1801 11.816C40.9561 11.6667 40.6521 11.592 40.2681 11.592C39.8734 11.592 39.5481 11.6613 39.2921 11.8C39.0361 11.928 38.8387 12.1147 38.7001 12.36C38.5721 12.5947 38.5081 12.888 38.5081 13.24V13.816H36.3641C36.3534 13.7627 36.3427 13.688 36.3321 13.592C36.3214 13.496 36.3161 13.3787 36.3161 13.24C36.3161 12.4613 36.4921 11.8213 36.8441 11.32C37.2067 10.8187 37.6921 10.4453 38.3001 10.2C38.9187 9.95467 39.6174 9.832 40.3961 9.832C41.1001 9.832 41.6867 9.93333 42.1561 10.136C42.6361 10.328 43.0201 10.5893 43.3081 10.92C43.5961 11.24 43.7987 11.592 43.9161 11.976C44.0441 12.3493 44.1081 12.712 44.1081 13.064C44.1081 13.5653 44.0174 14.024 43.8361 14.44C43.6547 14.856 43.4094 15.2453 43.1001 15.608C42.7907 15.9707 42.4227 16.3227 41.9961 16.664C41.5694 16.9947 41.1161 17.3253 40.6361 17.656C40.3907 17.8267 40.1561 17.992 39.9321 18.152C39.7187 18.312 39.5321 18.4667 39.3721 18.616C39.2227 18.7547 39.1054 18.8933 39.0201 19.032H44.1881V21H36.2201ZM49.7353 21.192C48.8393 21.192 48.0873 21.0533 47.4793 20.776C46.8713 20.4987 46.4126 20.1147 46.1033 19.624C45.794 19.1333 45.6393 18.568 45.6393 17.928V17.656H47.7993V17.96C47.7993 18.4293 47.954 18.7973 48.2633 19.064C48.5833 19.3307 49.042 19.464 49.6393 19.464C50.2153 19.464 50.6633 19.3307 50.9833 19.064C51.3033 18.7973 51.4633 18.3867 51.4633 17.832C51.4633 17.416 51.378 17.096 51.2073 16.872C51.0366 16.648 50.8126 16.488 50.5353 16.392C50.2686 16.296 49.9753 16.248 49.6553 16.248H48.6793V14.568H49.6393C49.938 14.568 50.2046 14.5147 50.4393 14.408C50.6846 14.2907 50.8766 14.12 51.0153 13.896C51.1646 13.672 51.2393 13.384 51.2393 13.032C51.2393 12.7013 51.17 12.4293 51.0313 12.216C50.9033 11.992 50.7166 11.8267 50.4713 11.72C50.2366 11.6133 49.9646 11.56 49.6553 11.56C49.346 11.56 49.0633 11.6133 48.8073 11.72C48.562 11.8267 48.37 11.9867 48.2313 12.2C48.0926 12.4133 48.0233 12.68 48.0233 13V13.24H45.8953V12.84C45.8953 12.2427 46.05 11.72 46.3593 11.272C46.6793 10.8133 47.1273 10.4613 47.7033 10.216C48.2793 9.96 48.946 9.832 49.7033 9.832C50.4606 9.832 51.122 9.94933 51.6873 10.184C52.2633 10.4187 52.706 10.7653 53.0153 11.224C53.3353 11.672 53.4953 12.2053 53.4953 12.824C53.4953 13.24 53.4153 13.608 53.2553 13.928C53.106 14.248 52.9033 14.52 52.6473 14.744C52.3913 14.9573 52.098 15.1387 51.7673 15.288V15.352C52.3433 15.5227 52.8126 15.8373 53.1753 16.296C53.5486 16.744 53.7353 17.3253 53.7353 18.04C53.7246 18.68 53.554 19.2347 53.2233 19.704C52.9033 20.1733 52.4446 20.5413 51.8473 20.808C51.25 21.064 50.546 21.192 49.7353 21.192ZM55.6666 23.704V22.776C55.9332 22.7333 56.1572 22.6267 56.3386 22.456C56.5199 22.296 56.6586 22.088 56.7546 21.832C56.8506 21.576 56.8986 21.2987 56.8986 21H55.7626V18.712H58.0826V20.776C58.0826 21.4267 57.9706 21.9547 57.7466 22.36C57.5226 22.7653 57.2239 23.0747 56.8506 23.288C56.4879 23.5013 56.0932 23.64 55.6666 23.704ZM66.4334 21V12.024H62.9134V10.024H72.3694V12.024H68.8334V21H66.4334ZM78.6776 21.192C77.5149 21.192 76.5122 20.984 75.6696 20.568C74.8269 20.152 74.1816 19.5227 73.7336 18.68C73.2856 17.8373 73.0616 16.7813 73.0616 15.512C73.0616 14.2213 73.2856 13.16 73.7336 12.328C74.1816 11.4853 74.8269 10.8613 75.6696 10.456C76.5122 10.04 77.5149 9.832 78.6776 9.832C79.8616 9.832 80.8696 10.04 81.7016 10.456C82.5442 10.8613 83.1896 11.4853 83.6376 12.328C84.0856 13.16 84.3096 14.2213 84.3096 15.512C84.3096 16.7813 84.0856 17.8373 83.6376 18.68C83.1896 19.5227 82.5442 20.152 81.7016 20.568C80.8696 20.984 79.8616 21.192 78.6776 21.192ZM78.6776 19.24C79.2002 19.24 79.6589 19.1653 80.0536 19.016C80.4482 18.8667 80.7789 18.6427 81.0456 18.344C81.3122 18.0453 81.5149 17.6827 81.6536 17.256C81.7922 16.8187 81.8616 16.3227 81.8616 15.768V15.272C81.8616 14.7067 81.7922 14.2053 81.6536 13.768C81.5149 13.3307 81.3122 12.968 81.0456 12.68C80.7789 12.3813 80.4482 12.1573 80.0536 12.008C79.6589 11.8587 79.2002 11.784 78.6776 11.784C78.1656 11.784 77.7122 11.8587 77.3176 12.008C76.9229 12.1573 76.5922 12.3813 76.3256 12.68C76.0589 12.968 75.8562 13.3307 75.7176 13.768C75.5896 14.2053 75.5256 14.7067 75.5256 15.272V15.768C75.5256 16.3227 75.5896 16.8187 75.7176 17.256C75.8562 17.6827 76.0589 18.0453 76.3256 18.344C76.5922 18.6427 76.9229 18.8667 77.3176 19.016C77.7122 19.1653 78.1656 19.24 78.6776 19.24ZM86.2451 21V10.024H89.8771L91.4451 15.64C91.5091 15.8427 91.5731 16.0827 91.6371 16.36C91.7011 16.6373 91.7651 16.9147 91.8291 17.192C91.9037 17.4587 91.9624 17.6987 92.0051 17.912H92.1331C92.1544 17.7307 92.1917 17.5173 92.2451 17.272C92.2984 17.016 92.3571 16.744 92.4211 16.456C92.4851 16.168 92.5544 15.8907 92.6291 15.624L94.1971 10.024H97.7651V21H95.4131V15.8C95.4131 15.32 95.4131 14.84 95.4131 14.36C95.4237 13.8693 95.4344 13.4427 95.4451 13.08C95.4664 12.7173 95.4771 12.4827 95.4771 12.376H95.3491C95.3277 12.4933 95.2744 12.712 95.1891 13.032C95.1144 13.3413 95.0291 13.672 94.9331 14.024C94.8477 14.376 94.7677 14.68 94.6931 14.936L92.9811 21H90.9011L89.1731 14.952C89.1091 14.728 89.0344 14.4667 88.9491 14.168C88.8744 13.8587 88.7997 13.544 88.7251 13.224C88.6611 12.8933 88.5971 12.6107 88.5331 12.376H88.4051C88.4157 12.664 88.4264 13.0107 88.4371 13.416C88.4477 13.8107 88.4584 14.2213 88.4691 14.648C88.4797 15.064 88.4851 15.448 88.4851 15.8V21H86.2451ZM99.0782 21L103.302 10.024H106.246L110.47 21H107.894L107.11 18.84H102.326L101.542 21H99.0782ZM103.014 16.92H106.422L105.446 14.216C105.404 14.0987 105.35 13.96 105.286 13.8C105.233 13.6293 105.174 13.4427 105.11 13.24C105.046 13.0373 104.982 12.84 104.918 12.648C104.865 12.4453 104.812 12.264 104.758 12.104H104.662C104.609 12.3067 104.54 12.5467 104.454 12.824C104.369 13.0907 104.284 13.352 104.198 13.608C104.113 13.8533 104.044 14.056 103.99 14.216L103.014 16.92ZM113.137 21V12.024H109.617V10.024H119.073V12.024H115.537V21H113.137ZM120.683 21V10.024H129.451V11.976H123.083V14.424H128.715V16.36H123.083V19.032H129.547V21H120.683ZM131.604 21V10.024H137.316C138.106 10.024 138.762 10.1733 139.284 10.472C139.818 10.76 140.218 11.1707 140.484 11.704C140.762 12.2267 140.9 12.8507 140.9 13.576C140.9 14.3013 140.756 14.936 140.468 15.48C140.191 16.0133 139.78 16.4293 139.236 16.728C138.692 17.0267 138.026 17.176 137.236 17.176H133.988V21H131.604ZM133.988 15.224H136.916C137.418 15.224 137.802 15.08 138.068 14.792C138.346 14.504 138.484 14.104 138.484 13.592C138.484 13.24 138.426 12.9467 138.308 12.712C138.191 12.4773 138.015 12.296 137.78 12.168C137.556 12.04 137.268 11.976 136.916 11.976H133.988V15.224ZM147.615 21.192C146.452 21.192 145.45 20.984 144.607 20.568C143.764 20.152 143.119 19.5227 142.671 18.68C142.223 17.8373 141.999 16.7813 141.999 15.512C141.999 14.2213 142.223 13.16 142.671 12.328C143.119 11.4853 143.764 10.8613 144.607 10.456C145.45 10.04 146.452 9.832 147.615 9.832C148.799 9.832 149.807 10.04 150.639 10.456C151.482 10.8613 152.127 11.4853 152.575 12.328C153.023 13.16 153.247 14.2213 153.247 15.512C153.247 16.7813 153.023 17.8373 152.575 18.68C152.127 19.5227 151.482 20.152 150.639 20.568C149.807 20.984 148.799 21.192 147.615 21.192ZM147.615 19.24C148.138 19.24 148.596 19.1653 148.991 19.016C149.386 18.8667 149.716 18.6427 149.983 18.344C150.25 18.0453 150.452 17.6827 150.591 17.256C150.73 16.8187 150.799 16.3227 150.799 15.768V15.272C150.799 14.7067 150.73 14.2053 150.591 13.768C150.452 13.3307 150.25 12.968 149.983 12.68C149.716 12.3813 149.386 12.1573 148.991 12.008C148.596 11.8587 148.138 11.784 147.615 11.784C147.103 11.784 146.65 11.8587 146.255 12.008C145.86 12.1573 145.53 12.3813 145.263 12.68C144.996 12.968 144.794 13.3307 144.655 13.768C144.527 14.2053 144.463 14.7067 144.463 15.272V15.768C144.463 16.3227 144.527 16.8187 144.655 17.256C144.794 17.6827 144.996 18.0453 145.263 18.344C145.53 18.6427 145.86 18.8667 146.255 19.016C146.65 19.1653 147.103 19.24 147.615 19.24ZM159.455 21.192C158.815 21.192 158.207 21.128 157.631 21C157.055 20.872 156.543 20.6693 156.095 20.392C155.657 20.104 155.311 19.7467 155.055 19.32C154.809 18.8827 154.687 18.3547 154.687 17.736C154.687 17.6827 154.687 17.6293 154.687 17.576C154.687 17.512 154.692 17.464 154.703 17.432H157.071C157.06 17.464 157.055 17.5067 157.055 17.56C157.055 17.6133 157.055 17.6613 157.055 17.704C157.055 18.0453 157.145 18.3333 157.327 18.568C157.519 18.8027 157.796 18.9787 158.159 19.096C158.521 19.2133 158.943 19.272 159.423 19.272C159.732 19.272 160.004 19.256 160.239 19.224C160.484 19.1813 160.697 19.128 160.879 19.064C161.071 18.9893 161.225 18.904 161.343 18.808C161.471 18.712 161.561 18.6 161.615 18.472C161.679 18.344 161.711 18.2 161.711 18.04C161.711 17.752 161.615 17.5173 161.423 17.336C161.241 17.1547 160.985 17 160.655 16.872C160.335 16.744 159.972 16.6267 159.567 16.52C159.161 16.4133 158.745 16.3067 158.319 16.2C157.892 16.0827 157.476 15.944 157.071 15.784C156.665 15.6133 156.303 15.4107 155.983 15.176C155.663 14.9413 155.407 14.6427 155.215 14.28C155.023 13.9173 154.927 13.48 154.927 12.968C154.927 12.424 155.039 11.9547 155.263 11.56C155.497 11.1653 155.823 10.84 156.239 10.584C156.655 10.328 157.135 10.1413 157.679 10.024C158.223 9.896 158.815 9.832 159.455 9.832C160.052 9.832 160.617 9.896 161.151 10.024C161.684 10.1413 162.153 10.3333 162.559 10.6C162.964 10.8667 163.279 11.2027 163.503 11.608C163.737 12.0133 163.855 12.4933 163.855 13.048V13.24H161.535V13.112C161.535 12.824 161.449 12.5787 161.279 12.376C161.108 12.1733 160.868 12.0133 160.559 11.896C160.249 11.7787 159.887 11.72 159.471 11.72C159.023 11.72 158.639 11.7627 158.319 11.848C158.009 11.9333 157.769 12.0613 157.599 12.232C157.439 12.392 157.359 12.584 157.359 12.808C157.359 13.064 157.449 13.2773 157.631 13.448C157.823 13.608 158.079 13.752 158.399 13.88C158.729 13.9973 159.097 14.104 159.503 14.2C159.908 14.296 160.324 14.4027 160.751 14.52C161.177 14.6373 161.593 14.776 161.999 14.936C162.404 15.096 162.767 15.2987 163.087 15.544C163.407 15.7787 163.663 16.072 163.855 16.424C164.047 16.776 164.143 17.1973 164.143 17.688C164.143 18.5307 163.94 19.208 163.535 19.72C163.129 20.232 162.575 20.6053 161.871 20.84C161.167 21.0747 160.361 21.192 159.455 21.192Z" fill="#F9F9F9"/>
<path d="M180.681 21.192C179.753 21.192 178.953 21.0427 178.281 20.744C177.609 20.4453 177.092 19.976 176.729 19.336C176.377 18.6853 176.201 17.8533 176.201 16.84V10.024H177.721V17C177.721 17.96 177.977 18.68 178.489 19.16C179.012 19.64 179.743 19.88 180.681 19.88C181.631 19.88 182.372 19.64 182.905 19.16C183.439 18.68 183.705 17.96 183.705 17V10.024H185.209V16.84C185.209 17.8533 185.028 18.6853 184.665 19.336C184.303 19.976 183.78 20.4453 183.097 20.744C182.425 21.0427 181.62 21.192 180.681 21.192ZM187.664 21V12.584H188.8L188.928 13.848H189.04C189.264 13.5067 189.515 13.2293 189.792 13.016C190.08 12.8027 190.395 12.648 190.736 12.552C191.088 12.4453 191.462 12.392 191.856 12.392C192.39 12.392 192.854 12.4827 193.248 12.664C193.654 12.8453 193.968 13.1387 194.192 13.544C194.427 13.9493 194.544 14.4987 194.544 15.192V21H193.136V15.384C193.136 15.032 193.088 14.744 192.992 14.52C192.907 14.296 192.784 14.12 192.624 13.992C192.475 13.864 192.288 13.7733 192.064 13.72C191.851 13.6667 191.611 13.64 191.344 13.64C190.95 13.64 190.576 13.736 190.224 13.928C189.872 14.12 189.59 14.3973 189.376 14.76C189.174 15.1227 189.072 15.5547 189.072 16.056V21H187.664ZM202.968 21.192C202.392 21.192 201.885 21.1333 201.448 21.016C201.01 20.8987 200.648 20.728 200.36 20.504C200.072 20.28 199.853 20.0133 199.704 19.704C199.554 19.3947 199.48 19.0427 199.48 18.648C199.48 18.5947 199.48 18.5467 199.48 18.504C199.48 18.4507 199.485 18.408 199.496 18.376H200.888C200.877 18.4187 200.872 18.456 200.872 18.488C200.872 18.52 200.872 18.552 200.872 18.584C200.882 18.9573 200.978 19.2507 201.16 19.464C201.352 19.6773 201.613 19.8267 201.944 19.912C202.274 19.9973 202.642 20.04 203.048 20.04C203.4 20.04 203.725 19.9973 204.024 19.912C204.322 19.816 204.557 19.6773 204.728 19.496C204.909 19.304 205 19.064 205 18.776C205 18.424 204.882 18.1573 204.648 17.976C204.424 17.784 204.125 17.6347 203.752 17.528C203.378 17.4213 202.989 17.3093 202.584 17.192C202.242 17.096 201.901 16.9893 201.56 16.872C201.218 16.7547 200.909 16.6107 200.632 16.44C200.365 16.2693 200.146 16.0507 199.976 15.784C199.816 15.5067 199.736 15.16 199.736 14.744C199.736 14.3707 199.81 14.04 199.96 13.752C200.12 13.464 200.344 13.2187 200.632 13.016C200.92 12.8133 201.266 12.664 201.672 12.568C202.088 12.4613 202.546 12.408 203.048 12.408C203.581 12.408 204.045 12.4667 204.44 12.584C204.845 12.7013 205.181 12.8667 205.448 13.08C205.714 13.2933 205.912 13.5387 206.04 13.816C206.168 14.0827 206.232 14.3707 206.232 14.68C206.232 14.744 206.232 14.808 206.232 14.872C206.232 14.9253 206.226 14.968 206.216 15H204.84V14.824C204.84 14.6107 204.781 14.408 204.664 14.216C204.557 14.0133 204.365 13.8533 204.088 13.736C203.821 13.608 203.448 13.544 202.968 13.544C202.658 13.544 202.392 13.5707 202.168 13.624C201.944 13.6667 201.757 13.7413 201.608 13.848C201.458 13.944 201.346 14.0613 201.272 14.2C201.197 14.328 201.16 14.4773 201.16 14.648C201.16 14.9253 201.25 15.1387 201.432 15.288C201.613 15.4373 201.853 15.56 202.152 15.656C202.461 15.752 202.792 15.8587 203.144 15.976C203.517 16.0827 203.896 16.1947 204.28 16.312C204.674 16.4187 205.032 16.5573 205.352 16.728C205.682 16.8987 205.944 17.1333 206.136 17.432C206.338 17.72 206.44 18.104 206.44 18.584C206.44 19.032 206.354 19.4213 206.184 19.752C206.013 20.0827 205.768 20.3547 205.448 20.568C205.138 20.7813 204.77 20.936 204.344 21.032C203.928 21.1387 203.469 21.192 202.968 21.192ZM208.18 11V9.432H209.588V11H208.18ZM208.18 21V12.584H209.588V21H208.18ZM214.718 21.192C214.142 21.192 213.635 21.1333 213.198 21.016C212.76 20.8987 212.398 20.728 212.11 20.504C211.822 20.28 211.603 20.0133 211.454 19.704C211.304 19.3947 211.23 19.0427 211.23 18.648C211.23 18.5947 211.23 18.5467 211.23 18.504C211.23 18.4507 211.235 18.408 211.246 18.376H212.638C212.627 18.4187 212.622 18.456 212.622 18.488C212.622 18.52 212.622 18.552 212.622 18.584C212.632 18.9573 212.728 19.2507 212.91 19.464C213.102 19.6773 213.363 19.8267 213.694 19.912C214.024 19.9973 214.392 20.04 214.798 20.04C215.15 20.04 215.475 19.9973 215.774 19.912C216.072 19.816 216.307 19.6773 216.478 19.496C216.659 19.304 216.75 19.064 216.75 18.776C216.75 18.424 216.632 18.1573 216.398 17.976C216.174 17.784 215.875 17.6347 215.502 17.528C215.128 17.4213 214.739 17.3093 214.334 17.192C213.992 17.096 213.651 16.9893 213.31 16.872C212.968 16.7547 212.659 16.6107 212.382 16.44C212.115 16.2693 211.896 16.0507 211.726 15.784C211.566 15.5067 211.486 15.16 211.486 14.744C211.486 14.3707 211.56 14.04 211.71 13.752C211.87 13.464 212.094 13.2187 212.382 13.016C212.67 12.8133 213.016 12.664 213.422 12.568C213.838 12.4613 214.296 12.408 214.798 12.408C215.331 12.408 215.795 12.4667 216.19 12.584C216.595 12.7013 216.931 12.8667 217.198 13.08C217.464 13.2933 217.662 13.5387 217.79 13.816C217.918 14.0827 217.982 14.3707 217.982 14.68C217.982 14.744 217.982 14.808 217.982 14.872C217.982 14.9253 217.976 14.968 217.966 15H216.59V14.824C216.59 14.6107 216.531 14.408 216.414 14.216C216.307 14.0133 216.115 13.8533 215.838 13.736C215.571 13.608 215.198 13.544 214.718 13.544C214.408 13.544 214.142 13.5707 213.918 13.624C213.694 13.6667 213.507 13.7413 213.358 13.848C213.208 13.944 213.096 14.0613 213.022 14.2C212.947 14.328 212.91 14.4773 212.91 14.648C212.91 14.9253 213 15.1387 213.182 15.288C213.363 15.4373 213.603 15.56 213.902 15.656C214.211 15.752 214.542 15.8587 214.894 15.976C215.267 16.0827 215.646 16.1947 216.03 16.312C216.424 16.4187 216.782 16.5573 217.102 16.728C217.432 16.8987 217.694 17.1333 217.886 17.432C218.088 17.72 218.19 18.104 218.19 18.584C218.19 19.032 218.104 19.4213 217.934 19.752C217.763 20.0827 217.518 20.3547 217.198 20.568C216.888 20.7813 216.52 20.936 216.094 21.032C215.678 21.1387 215.219 21.192 214.718 21.192ZM221.898 21.192C221.461 21.192 221.119 21.112 220.874 20.952C220.629 20.7813 220.453 20.5627 220.346 20.296C220.239 20.0187 220.186 19.7253 220.186 19.416V13.768H219.098V12.584H220.218L220.474 10.232H221.594V12.584H223.178V13.768H221.594V19.208C221.594 19.4747 221.642 19.6773 221.738 19.816C221.834 19.944 222.015 20.008 222.282 20.008H223.178V20.936C223.071 20.9893 222.943 21.032 222.794 21.064C222.645 21.096 222.49 21.1227 222.33 21.144C222.181 21.176 222.037 21.192 221.898 21.192ZM228.04 21.192C227.208 21.192 226.504 21.0373 225.928 20.728C225.363 20.408 224.931 19.9227 224.632 19.272C224.344 18.6213 224.2 17.7947 224.2 16.792C224.2 15.7787 224.344 14.952 224.632 14.312C224.931 13.6613 225.368 13.1813 225.944 12.872C226.52 12.552 227.24 12.392 228.104 12.392C228.893 12.392 229.555 12.5467 230.088 12.856C230.621 13.1547 231.021 13.608 231.288 14.216C231.565 14.8133 231.704 15.5653 231.704 16.472V17.144H225.656C225.677 17.816 225.773 18.3707 225.944 18.808C226.125 19.2347 226.392 19.5493 226.744 19.752C227.096 19.944 227.539 20.04 228.072 20.04C228.435 20.04 228.749 19.9973 229.016 19.912C229.293 19.816 229.523 19.6827 229.704 19.512C229.896 19.3413 230.04 19.1387 230.136 18.904C230.232 18.6693 230.285 18.4133 230.296 18.136H231.672C231.661 18.584 231.576 19 231.416 19.384C231.256 19.7573 231.021 20.0773 230.712 20.344C230.403 20.6107 230.024 20.8187 229.576 20.968C229.128 21.1173 228.616 21.192 228.04 21.192ZM225.688 16.088H230.248C230.248 15.6187 230.195 15.224 230.088 14.904C229.981 14.584 229.827 14.3227 229.624 14.12C229.432 13.9173 229.203 13.7733 228.936 13.688C228.68 13.592 228.387 13.544 228.056 13.544C227.565 13.544 227.149 13.6347 226.808 13.816C226.467 13.9973 226.205 14.2747 226.024 14.648C225.843 15.0213 225.731 15.5013 225.688 16.088ZM233.446 21V12.584H234.582L234.71 13.848H234.822C235.035 13.5067 235.275 13.2293 235.542 13.016C235.808 12.8027 236.102 12.648 236.422 12.552C236.742 12.4453 237.088 12.392 237.462 12.392C238.006 12.392 238.475 12.504 238.87 12.728C239.264 12.9413 239.558 13.3147 239.75 13.848H239.846C240.048 13.5067 240.283 13.2347 240.55 13.032C240.816 12.8187 241.115 12.6587 241.446 12.552C241.776 12.4453 242.128 12.392 242.502 12.392C243.014 12.392 243.462 12.4827 243.846 12.664C244.23 12.8347 244.528 13.1227 244.742 13.528C244.966 13.9227 245.078 14.456 245.078 15.128V21H243.67V15.352C243.67 15.0107 243.627 14.728 243.542 14.504C243.467 14.28 243.355 14.1093 243.206 13.992C243.056 13.864 242.88 13.7733 242.678 13.72C242.486 13.6667 242.278 13.64 242.054 13.64C241.68 13.64 241.334 13.736 241.014 13.928C240.704 14.12 240.454 14.3973 240.262 14.76C240.07 15.1227 239.974 15.5547 239.974 16.056V21H238.566V15.352C238.566 15.0107 238.523 14.728 238.438 14.504C238.352 14.28 238.24 14.1093 238.102 13.992C237.963 13.864 237.792 13.7733 237.59 13.72C237.398 13.6667 237.195 13.64 236.982 13.64C236.598 13.64 236.24 13.736 235.91 13.928C235.59 14.12 235.334 14.3973 235.142 14.76C234.95 15.1227 234.854 15.5547 234.854 16.056V21H233.446ZM249.323 21.192C249.014 21.192 248.705 21.1547 248.395 21.08C248.086 21.0053 247.798 20.8827 247.531 20.712C247.265 20.5413 247.051 20.3067 246.891 20.008C246.731 19.6987 246.651 19.3147 246.651 18.856C246.651 18.28 246.79 17.8053 247.067 17.432C247.345 17.0587 247.729 16.7707 248.219 16.568C248.721 16.3547 249.313 16.2107 249.995 16.136C250.678 16.0507 251.419 16.008 252.219 16.008V15.048C252.219 14.7387 252.166 14.472 252.059 14.248C251.953 14.024 251.761 13.8533 251.483 13.736C251.217 13.608 250.833 13.544 250.331 13.544C249.851 13.544 249.467 13.608 249.179 13.736C248.902 13.8533 248.705 14.008 248.587 14.2C248.481 14.392 248.427 14.6053 248.427 14.84V15.08H247.067C247.057 15.0267 247.051 14.9733 247.051 14.92C247.051 14.8667 247.051 14.8027 247.051 14.728C247.051 14.216 247.19 13.7893 247.467 13.448C247.755 13.096 248.155 12.8347 248.667 12.664C249.179 12.4827 249.766 12.392 250.427 12.392C251.131 12.392 251.718 12.4933 252.187 12.696C252.667 12.8987 253.025 13.1867 253.259 13.56C253.505 13.9333 253.627 14.3813 253.627 14.904V19.464C253.627 19.6667 253.675 19.8107 253.771 19.896C253.867 19.9707 253.985 20.008 254.123 20.008H254.747V20.936C254.598 21 254.433 21.0533 254.251 21.096C254.07 21.1493 253.862 21.176 253.627 21.176C253.35 21.176 253.121 21.1173 252.939 21C252.758 20.8933 252.619 20.744 252.523 20.552C252.427 20.3493 252.363 20.1253 252.331 19.88H252.219C252.027 20.1467 251.782 20.3813 251.483 20.584C251.195 20.776 250.87 20.9253 250.507 21.032C250.145 21.1387 249.75 21.192 249.323 21.192ZM249.675 20.008C250.017 20.008 250.337 19.9547 250.635 19.848C250.945 19.7413 251.217 19.592 251.451 19.4C251.686 19.1973 251.873 18.9573 252.011 18.68C252.15 18.4027 252.219 18.0987 252.219 17.768V17.064C251.355 17.064 250.619 17.112 250.011 17.208C249.403 17.304 248.934 17.4747 248.603 17.72C248.283 17.9653 248.123 18.312 248.123 18.76C248.123 19.048 248.187 19.2827 248.315 19.464C248.443 19.6453 248.625 19.784 248.859 19.88C249.094 19.9653 249.366 20.008 249.675 20.008ZM262.138 21.192C261.444 21.192 260.847 21.0373 260.346 20.728C259.855 20.4187 259.471 19.9387 259.194 19.288C258.927 18.6267 258.794 17.7733 258.794 16.728C258.794 15.736 258.932 14.92 259.21 14.28C259.487 13.64 259.871 13.1653 260.362 12.856C260.852 12.5467 261.423 12.392 262.074 12.392C262.447 12.392 262.794 12.4347 263.114 12.52C263.434 12.6053 263.716 12.7387 263.962 12.92C264.218 13.1013 264.442 13.3413 264.634 13.64H264.73V9.432H266.138V21H265.002L264.874 19.8H264.762C264.474 20.2693 264.1 20.6213 263.642 20.856C263.183 21.08 262.682 21.192 262.138 21.192ZM262.474 19.96C263.007 19.96 263.439 19.8427 263.77 19.608C264.1 19.3733 264.34 19.032 264.49 18.584C264.65 18.136 264.73 17.5813 264.73 16.92V16.664C264.73 16.088 264.671 15.6027 264.554 15.208C264.436 14.8133 264.276 14.4987 264.074 14.264C263.871 14.0293 263.636 13.864 263.37 13.768C263.103 13.672 262.82 13.624 262.522 13.624C261.999 13.624 261.572 13.7307 261.242 13.944C260.911 14.1467 260.666 14.472 260.506 14.92C260.346 15.3573 260.266 15.928 260.266 16.632V16.968C260.266 17.6933 260.351 18.28 260.522 18.728C260.692 19.1653 260.938 19.48 261.258 19.672C261.588 19.864 261.994 19.96 262.474 19.96ZM271.712 21.192C270.88 21.192 270.176 21.0373 269.6 20.728C269.034 20.408 268.602 19.9227 268.304 19.272C268.016 18.6213 267.872 17.7947 267.872 16.792C267.872 15.7787 268.016 14.952 268.304 14.312C268.602 13.6613 269.04 13.1813 269.616 12.872C270.192 12.552 270.912 12.392 271.776 12.392C272.565 12.392 273.226 12.5467 273.76 12.856C274.293 13.1547 274.693 13.608 274.96 14.216C275.237 14.8133 275.376 15.5653 275.376 16.472V17.144H269.328C269.349 17.816 269.445 18.3707 269.616 18.808C269.797 19.2347 270.064 19.5493 270.416 19.752C270.768 19.944 271.21 20.04 271.744 20.04C272.106 20.04 272.421 19.9973 272.688 19.912C272.965 19.816 273.194 19.6827 273.376 19.512C273.568 19.3413 273.712 19.1387 273.808 18.904C273.904 18.6693 273.957 18.4133 273.968 18.136H275.344C275.333 18.584 275.248 19 275.088 19.384C274.928 19.7573 274.693 20.0773 274.384 20.344C274.074 20.6107 273.696 20.8187 273.248 20.968C272.8 21.1173 272.288 21.192 271.712 21.192ZM269.36 16.088H273.92C273.92 15.6187 273.866 15.224 273.76 14.904C273.653 14.584 273.498 14.3227 273.296 14.12C273.104 13.9173 272.874 13.7733 272.608 13.688C272.352 13.592 272.058 13.544 271.728 13.544C271.237 13.544 270.821 13.6347 270.48 13.816C270.138 13.9973 269.877 14.2747 269.696 14.648C269.514 15.0213 269.402 15.5013 269.36 16.088Z" fill="#F9F9F9"/>
<path d="M298.741 10.7692H295.359V18.2668C295.359 19.5705 296.133 19.8547 297.325 19.8547C297.777 19.8547 298.258 19.7929 298.741 19.7929V23.7636C297.741 23.7965 296.745 23.9222 295.745 23.9222C291.074 23.9222 289.88 22.5877 289.88 18.1082V10.7692H287.11V7.27324H289.88V4.31888L295.359 2.28613V7.27324H298.741V10.7692Z" fill="#F9F9F9"/>
<path d="M374.456 6.79747C371.39 6.79747 368.65 8.19985 367.014 10.473V7.27324H363.632V2.28613L358.153 4.31888V7.27324H355.381V8.80728C353.948 7.18347 351.378 6.79747 348.748 6.79747C346.846 6.79747 344.913 7.11665 343.432 7.94351C341.951 8.7993 340.92 10.1967 340.823 12.3571H345.945C346.203 10.9617 347.17 10.2924 348.683 10.2924C349.811 10.2924 351.326 10.7692 351.326 12.007C351.326 13.0234 350.81 13.3435 349.875 13.5331C346.7 14.1704 342.047 13.9899 340.596 17.038V13.9141C340.596 10.7692 340.017 6.79747 334.705 6.79747C332.449 6.79747 330.802 7.72009 329.482 9.46657C328.58 7.46475 326.713 6.79747 324.619 6.79747C322.525 6.79747 320.817 7.87967 319.821 9.5314H319.752V7.27424H314.435V23.7646H319.915V15.7264C319.915 12.3581 320.752 11.246 322.719 11.246C324.2 11.246 324.78 12.4529 324.78 14.3928V23.7646H330.257V15.6945C330.257 13.0254 330.483 11.246 332.832 11.246C334.253 11.246 335.12 12.2953 335.12 14.0757V23.7646H340.596V21.4815C341.457 23.3517 343.463 24.2404 345.849 24.2404C347.846 24.2404 349.941 23.6689 351.356 22.2086C351.421 22.7472 351.485 23.2549 351.68 23.7646H357.187C356.547 22.462 356.547 20.9369 356.547 19.5395V12.3292C356.547 11.7537 356.487 11.237 356.378 10.7712H358.154V18.1102C358.154 22.5897 359.347 23.9242 364.018 23.9242C365.018 23.9242 366.016 23.7995 367.015 23.7656V20.8372C368.596 23.0315 371.263 24.2414 374.584 24.2414C378.323 24.2414 381.9 22.5897 382.898 18.7785H377.775C377.258 19.9854 375.97 20.5898 374.65 20.5898C372.329 20.5898 371.01 19.0977 370.912 16.8425H383.19C383.445 11.248 380.451 6.80146 374.457 6.80146L374.456 6.79747ZM347.91 20.906C346.686 20.906 345.624 20.3634 345.624 19.0289C345.624 17.6943 346.654 17.2205 347.879 16.9323C349.071 16.6151 350.491 16.5203 351.262 16.0436C351.389 19.4438 350.522 20.906 347.91 20.906ZM365.596 19.8547C364.403 19.8547 363.633 19.5705 363.633 18.2668V10.7692H366.821C365.948 12.0978 365.433 13.6926 365.433 15.4701C365.433 17.1387 365.776 18.594 366.396 19.8198C366.123 19.8368 365.854 19.8557 365.596 19.8557V19.8547ZM370.911 13.8193C371.234 11.8175 372.522 10.45 374.456 10.45C376.29 10.45 377.613 11.9771 377.711 13.8193H370.911Z" fill="#F9F9F9"/>
<path d="M315.454 15.636C315.454 10.4723 311.208 6.28613 305.97 6.28613C300.732 6.28613 296.49 10.4723 296.49 15.636C296.49 20.7996 300.736 24.9858 305.97 24.9858C311.204 24.9858 315.454 20.7986 315.454 15.636Z" fill="#E20D18"/>
<path d="M306.603 13.4571C306.603 13.4571 304.592 12.4168 304.143 11.7396C305.129 12.1435 306.543 12.2941 307.122 12.0847C307.701 11.8742 307.342 9.71679 306.827 9.25C307.449 9.40061 308.517 11.1351 308.622 11.6857C309.139 11.201 310.06 10.8209 311.434 10.4858C309.778 11.7725 309.329 12.5116 309.413 12.9125C310.442 13.0213 312.026 14.2491 312.026 14.7358C310.849 13.7603 309.282 14.0745 308.981 14.286C309.129 15.2166 308.954 16.8434 308.825 17.1606C308.356 16.0185 308.079 15.1707 307.565 14.5992C307.163 14.1513 305.655 15.844 305.544 16.1402C305.419 15.7592 306.001 13.9838 306.601 13.4571H306.603Z" fill="#F9F9F9"/>
</svg>
