<svg width="546" height="192" viewBox="0 0 546 192" fill="none" xmlns="http://www.w3.org/2000/svg">
<path d="M96.4337 184.758V146.67H110.862C113.411 146.67 115.332 146.787 116.685 147.041C118.567 147.353 120.135 147.939 121.41 148.817C122.684 149.696 123.703 150.926 124.468 152.488C125.232 154.069 125.624 155.806 125.624 157.68C125.624 160.921 124.585 163.654 122.527 165.899C120.449 168.144 116.724 169.257 111.313 169.257H101.511V184.738H96.4533L96.4337 184.758ZM101.492 164.767H111.372C114.646 164.767 116.959 164.162 118.332 162.951C119.704 161.741 120.39 160.023 120.39 157.837C120.39 156.236 119.978 154.889 119.175 153.737C118.371 152.605 117.293 151.843 115.979 151.492C115.136 151.277 113.548 151.16 111.255 151.16H101.472V164.767H101.492Z" fill="#F9F9F9"/>
<path d="M149.64 184.758V180.697C147.483 183.821 144.543 185.382 140.837 185.382C139.21 185.382 137.681 185.07 136.25 184.445C134.839 183.821 133.78 183.04 133.094 182.083C132.408 181.146 131.917 179.975 131.643 178.608C131.447 177.691 131.349 176.226 131.349 174.235V157.134H136.054V172.439C136.054 174.879 136.152 176.519 136.348 177.378C136.642 178.608 137.269 179.565 138.23 180.267C139.191 180.97 140.367 181.322 141.778 181.322C143.19 181.322 144.503 180.97 145.739 180.248C146.974 179.526 147.856 178.55 148.365 177.32C148.875 176.07 149.13 174.274 149.13 171.932V157.153H153.835V184.758H149.64Z" fill="#F9F9F9"/>
<path d="M161.206 184.757V157.153H165.441V161.077C167.48 158.051 170.42 156.528 174.263 156.528C175.929 156.528 177.458 156.821 178.87 157.426C180.281 158.012 181.32 158.812 182.007 159.769C182.693 160.726 183.183 161.897 183.477 163.224C183.653 164.083 183.732 165.606 183.732 167.773V184.738H179.027V167.949C179.027 166.036 178.85 164.61 178.478 163.673C178.105 162.736 177.458 161.975 176.537 161.409C175.596 160.843 174.518 160.569 173.263 160.569C171.263 160.569 169.538 161.194 168.087 162.463C166.637 163.732 165.911 166.133 165.911 169.667V184.738H161.206V184.757Z" fill="#F9F9F9"/>
<path d="M201.18 180.58L201.866 184.719C200.552 184.992 199.356 185.129 198.317 185.129C196.612 185.129 195.298 184.856 194.357 184.328C193.416 183.801 192.75 183.079 192.377 182.201C192.005 181.322 191.809 179.487 191.809 176.676V160.804H188.358V157.173H191.809V150.34L196.475 147.529V157.173H201.199V160.804H196.475V176.949C196.475 178.277 196.553 179.136 196.729 179.526C196.886 179.897 197.161 180.209 197.533 180.444C197.906 180.658 198.435 180.775 199.141 180.775C199.67 180.775 200.356 180.717 201.199 180.6L201.18 180.58Z" fill="#F9F9F9"/>
<path d="M204.022 170.955C204.022 165.84 205.453 162.053 208.296 159.593C210.688 157.543 213.589 156.528 217.02 156.528C220.823 156.528 223.94 157.778 226.371 160.257C228.782 162.736 229.998 166.172 229.998 170.565C229.998 174.118 229.469 176.909 228.39 178.94C227.332 180.97 225.763 182.551 223.725 183.684C221.686 184.816 219.451 185.382 217.039 185.382C213.158 185.382 210.021 184.152 207.629 181.673C205.238 179.193 204.042 175.621 204.042 170.975L204.022 170.955ZM208.845 170.955C208.845 174.489 209.609 177.144 211.158 178.901C212.707 180.658 214.648 181.536 217 181.536C219.353 181.536 221.274 180.658 222.823 178.881C224.371 177.105 225.136 174.43 225.136 170.799C225.136 167.383 224.352 164.806 222.803 163.049C221.235 161.292 219.314 160.413 217 160.413C214.687 160.413 212.707 161.292 211.158 163.029C209.609 164.767 208.845 167.422 208.845 170.955Z" fill="#F9F9F9"/>
<path d="M268.324 184.758V181.283C266.56 184.016 263.992 185.382 260.581 185.382C258.365 185.382 256.346 184.777 254.484 183.567C252.641 182.356 251.19 180.658 250.171 178.491C249.151 176.324 248.642 173.825 248.642 170.994C248.642 168.164 249.092 165.743 250.034 163.498C250.955 161.253 252.347 159.535 254.19 158.344C256.032 157.153 258.091 156.548 260.365 156.548C262.031 156.548 263.521 156.9 264.835 157.602C266.148 158.305 267.207 159.223 268.011 160.335V146.67H272.676V184.758H268.324ZM253.484 170.994C253.484 174.528 254.229 177.163 255.719 178.92C257.209 180.677 258.973 181.536 261.012 181.536C263.051 181.536 264.815 180.697 266.246 179.018C267.677 177.339 268.403 174.801 268.403 171.365C268.403 167.598 267.677 164.825 266.207 163.049C264.737 161.272 262.953 160.394 260.796 160.394C258.64 160.394 256.973 161.233 255.562 162.932C254.17 164.63 253.464 167.305 253.464 170.955L253.484 170.994Z" fill="#F9F9F9"/>
<path d="M299.025 175.875L303.887 176.48C303.122 179.311 301.711 181.497 299.632 183.059C297.554 184.621 294.927 185.402 291.693 185.402C287.635 185.402 284.419 184.152 282.047 181.673C279.675 179.193 278.479 175.699 278.479 171.209C278.479 166.719 279.675 162.971 282.087 160.394C284.498 157.817 287.595 156.548 291.438 156.548C295.28 156.548 298.162 157.797 300.515 160.316C302.867 162.834 304.043 166.367 304.043 170.916C304.043 171.189 304.043 171.599 304.024 172.166H283.361C283.537 175.191 284.4 177.515 285.949 179.135C287.497 180.755 289.438 181.556 291.732 181.556C293.457 181.556 294.927 181.107 296.143 180.209C297.358 179.311 298.319 177.866 299.044 175.894L299.025 175.875ZM283.596 168.32H299.064C298.848 165.997 298.26 164.259 297.28 163.088C295.79 161.292 293.849 160.394 291.457 160.394C289.301 160.394 287.478 161.116 286.027 162.541C284.557 163.986 283.733 165.899 283.577 168.3L283.596 168.32Z" fill="#F9F9F9"/>
<path d="M332.332 184.758L321.785 157.153H326.745L332.685 173.689C333.332 175.465 333.92 177.32 334.469 179.252C334.881 177.788 335.469 176.051 336.214 174.001L342.37 157.153H347.193L336.704 184.758H332.313H332.332Z" fill="#F9F9F9"/>
<path d="M370.326 175.875L375.188 176.48C374.423 179.311 373.011 181.497 370.933 183.059C368.855 184.621 366.228 185.402 362.994 185.402C358.936 185.402 355.72 184.152 353.348 181.673C350.976 179.193 349.78 175.699 349.78 171.209C349.78 166.719 350.976 162.971 353.387 160.394C355.779 157.836 358.896 156.548 362.739 156.548C366.581 156.548 369.463 157.797 371.816 160.316C374.168 162.834 375.344 166.367 375.344 170.916C375.344 171.189 375.344 171.599 375.325 172.166H354.662C354.838 175.191 355.701 177.515 357.25 179.135C358.798 180.755 360.739 181.556 363.033 181.556C364.758 181.556 366.228 181.107 367.444 180.209C368.659 179.311 369.62 177.866 370.345 175.894L370.326 175.875ZM354.897 168.32H370.365C370.149 165.997 369.561 164.259 368.581 163.088C367.091 161.292 365.15 160.394 362.758 160.394C360.602 160.394 358.779 161.116 357.328 162.541C355.858 163.986 355.034 165.899 354.877 168.3L354.897 168.32Z" fill="#F9F9F9"/>
<path d="M381.069 184.757V157.153H385.303V161.077C387.342 158.051 390.283 156.528 394.125 156.528C395.792 156.528 397.321 156.821 398.732 157.426C400.144 158.012 401.183 158.812 401.869 159.769C402.555 160.726 403.045 161.897 403.339 163.224C403.516 164.083 403.594 165.606 403.594 167.773V184.738H398.889V167.949C398.889 166.036 398.713 164.61 398.34 163.673C397.968 162.736 397.321 161.975 396.399 161.409C395.458 160.843 394.38 160.569 393.125 160.569C391.126 160.569 389.401 161.194 387.95 162.463C386.499 163.732 385.774 166.133 385.774 169.667V184.738H381.069V184.757Z" fill="#F9F9F9"/>
<path d="M421.042 180.58L421.728 184.719C420.415 184.992 419.219 185.129 418.18 185.129C416.474 185.129 415.161 184.856 414.22 184.328C413.279 183.801 412.612 183.079 412.24 182.201C411.867 181.322 411.671 179.487 411.671 176.676V160.804H408.221V157.173H411.671V150.34L416.337 147.529V157.173H421.062V160.804H416.337V176.949C416.337 178.277 416.415 179.136 416.592 179.526C416.749 179.897 417.023 180.209 417.396 180.444C417.768 180.658 418.297 180.775 419.003 180.775C419.532 180.775 420.219 180.717 421.062 180.6L421.042 180.58Z" fill="#F9F9F9"/>
<path d="M443.724 181.36C441.979 182.825 440.313 183.879 438.706 184.484C437.098 185.089 435.373 185.402 433.53 185.402C430.491 185.402 428.139 184.66 426.512 183.176C424.884 181.692 424.061 179.799 424.061 177.495C424.061 176.148 424.375 174.918 424.983 173.786C425.61 172.673 426.414 171.775 427.413 171.092C428.413 170.409 429.531 169.901 430.785 169.55C431.707 169.315 433.099 169.081 434.961 168.847C438.745 168.398 441.548 167.851 443.332 167.226C443.332 166.582 443.352 166.172 443.352 165.997C443.352 164.083 442.901 162.756 442.019 161.975C440.823 160.921 439.039 160.394 436.667 160.394C434.451 160.394 432.824 160.784 431.766 161.546C430.707 162.326 429.942 163.673 429.433 165.645L424.845 165.02C425.257 163.068 425.943 161.487 426.904 160.277C427.864 159.066 429.237 158.149 431.06 157.485C432.863 156.841 434.961 156.509 437.353 156.509C439.745 156.509 441.646 156.782 443.117 157.348C444.587 157.914 445.685 158.598 446.371 159.437C447.057 160.277 447.547 161.331 447.841 162.619C447.998 163.42 448.076 164.845 448.076 166.934V173.161C448.076 177.515 448.174 180.267 448.37 181.419C448.567 182.571 448.959 183.684 449.566 184.738H444.665C444.175 183.762 443.861 182.629 443.724 181.341V181.36ZM443.332 170.916C441.627 171.599 439.078 172.205 435.667 172.693C433.746 172.966 432.373 173.278 431.57 173.63C430.766 173.981 430.158 174.489 429.707 175.152C429.276 175.816 429.06 176.558 429.06 177.378C429.06 178.627 429.531 179.662 430.491 180.501C431.432 181.341 432.824 181.751 434.647 181.751C436.471 181.751 438.059 181.36 439.47 180.56C440.882 179.779 441.921 178.686 442.568 177.319C443.077 176.265 443.332 174.703 443.332 172.634V170.916Z" fill="#F9F9F9"/>
<path d="M71.2617 54.0764H52.52V96.0099C52.52 103.311 56.8133 104.892 63.42 104.892C65.9097 104.892 68.5955 104.541 71.2617 104.541V126.757C65.7137 126.933 60.2049 127.636 54.6569 127.636C28.7792 127.636 22.1725 120.178 22.1725 95.1119V54.0569H6.84192V34.4957H22.1921V17.9605L52.5396 6.59863V34.4957H71.2813V54.0569L71.2617 54.0764Z" fill="#F9F9F9"/>
<path d="M490.696 31.8407C473.719 31.8407 458.526 39.6886 449.468 52.3975V34.4957H430.727V6.61816L400.379 17.98V34.5153H385.029V43.105C377.089 34.0272 362.856 31.8603 348.271 31.8603C337.743 31.8603 327.039 33.6368 318.825 38.2635C310.611 43.0464 304.906 50.8748 304.377 62.959H332.744C334.175 55.1501 339.527 51.4019 347.918 51.4019C354.172 51.4019 362.562 54.0764 362.562 60.9873C362.562 66.6682 359.7 68.4642 354.525 69.5184C336.94 73.091 311.16 72.0758 303.122 89.1186V71.6463C303.122 54.0569 299.907 31.8407 270.481 31.8407C257.993 31.8407 248.857 36.9946 241.545 46.7752C236.546 35.5695 226.195 31.8407 214.609 31.8407C203.022 31.8407 193.554 37.8926 188.025 47.1266H187.653V34.4957H158.207V126.738H188.554V81.7783C188.554 62.9395 193.201 56.7119 204.101 56.7119C212.295 56.7119 215.51 63.4666 215.51 74.3209V126.738H245.858V81.6026C245.858 66.6682 247.113 56.7119 260.13 56.7119C268.011 56.7119 272.794 62.5881 272.794 72.5443V126.738H303.142V113.97C307.906 124.434 319.021 129.412 332.234 129.412C343.291 129.412 354.897 126.211 362.739 118.05C363.092 121.057 363.464 123.907 364.523 126.757H395.027C391.479 119.476 391.479 110.944 391.479 103.116V62.7833C391.479 59.5621 391.146 56.6729 390.538 54.0764H400.379V95.1314C400.379 120.198 406.986 127.655 432.863 127.655C438.412 127.655 443.92 126.952 449.468 126.777V110.398C458.232 122.677 472.994 129.432 491.402 129.432C512.104 129.432 531.924 120.198 537.453 98.8797H509.066C506.203 105.634 499.067 109.012 491.755 109.012C478.894 109.012 471.582 100.656 471.053 88.0449H539.06C540.472 56.751 523.886 31.8798 490.677 31.8798L490.696 31.8407ZM343.644 110.769C336.861 110.769 330.98 107.743 330.98 100.266C330.98 92.7888 336.685 90.1533 343.468 88.533C350.074 86.7564 357.936 86.2293 362.21 83.5548C362.915 102.569 358.112 110.749 343.644 110.749V110.769ZM441.627 104.892C435.02 104.892 430.746 103.311 430.746 96.0099V54.0764H448.41C443.567 61.5144 440.725 70.436 440.725 80.3727C440.725 89.7043 442.626 97.845 446.057 104.697C444.548 104.795 443.058 104.892 441.627 104.892ZM471.072 71.1388C472.856 59.9331 479.992 52.2999 490.716 52.2999C500.871 52.2999 508.203 60.8506 508.752 71.1388H471.092H471.072Z" fill="#F9F9F9"/>
<path d="M166.166 79.0253C166.166 50.1326 142.641 26.7256 113.627 26.7256C84.6123 26.7256 61.1067 50.1521 61.1067 79.0253C61.1067 107.899 84.6319 131.325 113.627 131.325C142.621 131.325 166.166 107.899 166.166 79.0253Z" fill="#E20D18"/>
<path d="M117.136 66.8435C117.136 66.8435 106.001 61.0259 103.511 57.2386C108.98 59.5032 116.803 60.3426 120.018 59.1713C123.213 58 121.233 45.9158 118.391 43.3193C121.841 44.1588 127.761 53.8613 128.33 56.9458C131.192 54.2322 136.289 52.1043 143.915 50.2302C134.741 57.4338 132.251 61.553 132.721 63.798C138.426 64.4032 147.189 71.275 147.189 73.9886C140.681 68.5224 131.996 70.2989 130.33 71.4702C131.153 76.6826 130.173 85.7799 129.467 87.5564C126.86 81.1727 125.33 76.4288 122.488 73.2272C120.253 70.7284 111.902 80.1966 111.294 81.856C110.608 79.7281 113.823 69.7913 117.155 66.8435H117.136Z" fill="#F9F9F9"/>
</svg>
