<svg width="16" height="16" viewBox="0 0 16 16" fill="none" xmlns="http://www.w3.org/2000/svg">
<path d="M8.2658 7.02222C6.24802 6.49778 5.59913 5.95556 5.59913 5.11111C5.59913 4.14222 6.49691 3.46667 7.99913 3.46667C9.26135 3.46667 9.89247 3.94667 10.1236 4.71111C10.2302 5.06667 10.5236 5.33333 10.8969 5.33333H11.1636C11.7502 5.33333 12.168 4.75556 11.9636 4.20444C11.5902 3.15556 10.7191 2.28444 9.33247 1.94667V1.33333C9.33247 0.595556 8.73691 0 7.99913 0C7.26135 0 6.6658 0.595556 6.6658 1.33333V1.92C4.94135 2.29333 3.55469 3.41333 3.55469 5.12889C3.55469 7.18222 5.25247 8.20444 7.73247 8.8C9.95469 9.33333 10.3991 10.1156 10.3991 10.9422C10.3991 11.5556 9.96358 12.5333 7.99913 12.5333C6.53247 12.5333 5.77691 12.0089 5.48358 11.2622C5.35024 10.9156 5.04802 10.6667 4.68358 10.6667H4.43469C3.83913 10.6667 3.42135 11.2711 3.64358 11.8222C4.15024 13.0578 5.33247 13.7867 6.6658 14.0711V14.6667C6.6658 15.4044 7.26135 16 7.99913 16C8.73691 16 9.33247 15.4044 9.33247 14.6667V14.0889C11.0658 13.76 12.4436 12.7556 12.4436 10.9333C12.4436 8.40889 10.2836 7.54667 8.2658 7.02222Z" fill="#F9F9F9"/>
</svg>
