<svg width="14" height="24" viewBox="0 0 14 24" fill="none" xmlns="http://www.w3.org/2000/svg">
<path d="M7.3987 10.5333C4.37203 9.74667 3.3987 8.93333 3.3987 7.66667C3.3987 6.21333 4.74536 5.2 6.9987 5.2C8.89203 5.2 9.8387 5.92 10.1854 7.06667C10.3454 7.6 10.7854 8 11.3454 8H11.7454C12.6254 8 13.252 7.13333 12.9454 6.30667C12.3854 4.73333 11.0787 3.42667 8.9987 2.92V2C8.9987 0.893333 8.10536 0 6.9987 0C5.89203 0 4.9987 0.893333 4.9987 2V2.88C2.41203 3.44 0.332031 5.12 0.332031 7.69333C0.332031 10.7733 2.8787 12.3067 6.5987 13.2C9.93203 14 10.5987 15.1733 10.5987 16.4133C10.5987 17.3333 9.94536 18.8 6.9987 18.8C4.7987 18.8 3.66536 18.0133 3.22536 16.8933C3.02536 16.3733 2.57203 16 2.02536 16H1.65203C0.758698 16 0.132031 16.9067 0.465364 17.7333C1.22536 19.5867 2.9987 20.68 4.9987 21.1067V22C4.9987 23.1067 5.89203 24 6.9987 24C8.10536 24 8.9987 23.1067 8.9987 22V21.1333C11.5987 20.64 13.6654 19.1333 13.6654 16.4C13.6654 12.6133 10.4254 11.32 7.3987 10.5333Z" fill="#F9F9F9"/>
</svg>
