<svg width="24" height="24" viewBox="0 0 24 24" fill="none" xmlns="http://www.w3.org/2000/svg">
<path d="M20.2868 7.33641L21.2078 5.29609L23.2482 4.37503C23.7029 4.16517 23.7029 3.52393 23.2482 3.31406L21.2078 2.393L20.2868 0.341025C20.0769 -0.113675 19.4357 -0.113675 19.2258 0.341025L18.3048 2.38135L16.2528 3.3024C15.7981 3.51227 15.7981 4.15351 16.2528 4.36337L18.2931 5.28443L19.2142 7.33641C19.424 7.79111 20.0769 7.79111 20.2868 7.33641ZM11.0062 9.08526L9.15246 5.00462C8.7444 4.09522 7.4386 4.09522 7.03053 5.00462L5.17675 9.08526L1.09611 10.939C0.186713 11.3588 0.186713 12.6529 1.09611 13.061L5.17675 14.9147L7.03053 18.9954C7.45025 19.9048 8.7444 19.9048 9.15246 18.9954L11.0062 14.9147L15.0869 13.061C15.9963 12.6412 15.9963 11.3471 15.0869 10.939L11.0062 9.08526ZM19.2142 16.6636L18.2931 18.7039L16.2528 19.625C15.7981 19.8348 15.7981 20.4761 16.2528 20.6859L18.2931 21.607L19.2142 23.659C19.424 24.1137 20.0653 24.1137 20.2751 23.659L21.1962 21.6187L23.2482 20.6976C23.7029 20.4877 23.7029 19.8465 23.2482 19.6366L21.2078 18.7156L20.2868 16.6636C20.0769 16.2089 19.424 16.2089 19.2142 16.6636Z" fill="#F9F9F9"/>
</svg>
