<svg width="16" height="16" viewBox="0 0 16 16" fill="none" xmlns="http://www.w3.org/2000/svg">
<path d="M3.5 0C1.57 0 0 1.57 0 3.5C0 5.43 1.57 7 3.5 7C5.43 7 7 5.43 7 3.5C7 1.57 5.43 0 3.5 0ZM3.5 5C2.67 5 2 4.33 2 3.5C2 2.67 2.67 2 3.5 2C4.33 2 5 2.67 5 3.5C5 4.33 4.33 5 3.5 5ZM12.5 9C10.57 9 9 10.57 9 12.5C9 14.43 10.57 16 12.5 16C14.43 16 16 14.43 16 12.5C16 10.57 14.43 9 12.5 9ZM12.5 14C11.67 14 11 13.33 11 12.5C11 11.67 11.67 11 12.5 11C13.33 11 14 11.67 14 12.5C14 13.33 13.33 14 12.5 14ZM15.29 0.71C15.68 1.1 15.68 1.73 15.29 2.12L2.12 15.29C1.73 15.68 1.1 15.68 0.71 15.29C0.32 14.9 0.32 14.27 0.71 13.88L13.88 0.71C14.27 0.32 14.9 0.32 15.29 0.71Z" fill="#F9F9F9"/>
</svg>
