<svg width="16" height="16" viewBox="0 0 16 16" fill="none" xmlns="http://www.w3.org/2000/svg">
<path d="M12.3184 5.64706H10.8219V0.941176C10.8219 0.423529 10.3984 0 9.88074 0H6.11604C5.59839 0 5.17486 0.423529 5.17486 0.941176V5.64706H3.67839C2.84074 5.64706 2.41721 6.66353 3.01016 7.25647L7.33016 11.5765C7.69722 11.9435 8.29016 11.9435 8.65722 11.5765L12.9772 7.25647C13.5702 6.66353 13.156 5.64706 12.3184 5.64706ZM1.41016 15.0588C1.41016 15.5765 1.83369 16 2.35133 16H13.6455C14.1631 16 14.5866 15.5765 14.5866 15.0588C14.5866 14.5412 14.1631 14.1176 13.6455 14.1176H2.35133C1.83369 14.1176 1.41016 14.5412 1.41016 15.0588Z" fill="#F9F9F9"/>
</svg>
