<svg width="24" height="24" viewBox="0 0 24 24" fill="none" xmlns="http://www.w3.org/2000/svg">
<path d="M20.9537 9.61202C20.8353 9.78696 20.7652 9.99004 20.7505 10.2008C20.7357 10.4115 20.7768 10.6223 20.8697 10.8121C21.1675 11.5072 21.3772 12.2369 21.4937 12.9841C21.8026 14.9163 21.5137 16.8968 20.6657 18.6603C20.5627 18.8537 20.4087 19.0152 20.2204 19.1274C20.0322 19.2395 19.8168 19.2979 19.5977 19.2963H4.41723C4.19687 19.2968 3.98063 19.2365 3.79224 19.1222C3.60385 19.0079 3.45056 18.8439 3.3492 18.6483C2.58103 17.09 2.25013 15.3524 2.39179 13.6208C2.53344 11.8892 3.14234 10.2285 4.15356 8.8158C5.16478 7.40304 6.54042 6.29118 8.13383 5.59874C9.72724 4.9063 11.4787 4.65924 13.2015 4.88389C14.0732 4.98635 14.9258 5.21263 15.7335 5.55591C15.9233 5.64876 16.1341 5.68989 16.3448 5.67514C16.5556 5.66039 16.7586 5.59028 16.9336 5.47191C17.1158 5.35184 17.2619 5.18433 17.356 4.98742C17.4502 4.79052 17.4888 4.57166 17.4679 4.35442C17.4469 4.13717 17.367 3.92976 17.237 3.75452C17.1069 3.57927 16.9314 3.44282 16.7296 3.35985C14.4113 2.36581 11.8388 2.12752 9.37746 2.67883C6.91608 3.23013 4.69101 4.54301 3.01829 6.43095C1.34558 8.3189 0.310291 10.6859 0.0594832 13.1958C-0.191325 15.7056 0.355103 18.2307 1.62115 20.4123C1.83057 20.7751 2.13127 21.0767 2.49337 21.2872C2.85547 21.4977 3.26636 21.6098 3.68521 21.6124H20.3057C20.7286 21.614 21.1444 21.5039 21.5111 21.2932C21.8778 21.0825 22.1823 20.7786 22.3937 20.4123C23.3206 18.806 23.8626 17.0067 23.9771 15.1557C24.0916 13.3047 23.7756 11.4523 23.0537 9.74403C22.9623 9.54933 22.8203 9.38279 22.6424 9.26182C22.4646 9.14086 22.2575 9.06991 22.0428 9.05642C21.8281 9.04293 21.6138 9.08738 21.4222 9.18512C21.2306 9.28287 21.0688 9.43031 20.9537 9.61202Z" fill="#F9F9F9"/>
<path d="M10.3095 12.72C9.85913 13.1704 9.60613 13.7812 9.60613 14.4181C9.60613 14.7334 9.66824 15.0457 9.78893 15.337C9.90961 15.6284 10.0865 15.8931 10.3095 16.1161C10.5325 16.3391 10.7972 16.516 11.0886 16.6367C11.3799 16.7574 11.6922 16.8195 12.0075 16.8195C12.6444 16.8195 13.2552 16.5665 13.7056 16.1161L20.4978 5.92783L10.3095 12.72Z" fill="#F9F9F9"/>
</svg>
