<svg width="16" height="16" viewBox="0 0 16 16" fill="none" xmlns="http://www.w3.org/2000/svg">
<path d="M5.95312 2.15L7.04063 4H7H4.75C4.05937 4 3.5 3.44062 3.5 2.75C3.5 2.05938 4.05937 1.5 4.75 1.5H4.81875C5.28437 1.5 5.71875 1.74688 5.95312 2.15ZM2 2.75C2 3.2 2.10938 3.625 2.3 4H1C0.446875 4 0 4.44688 0 5V7C0 7.55312 0.446875 8 1 8H15C15.5531 8 16 7.55312 16 7V5C16 4.44688 15.5531 4 15 4H13.7C13.8906 3.625 14 3.2 14 2.75C14 1.23125 12.7688 0 11.25 0H11.1812C10.1844 0 9.25938 0.528125 8.75313 1.3875L8 2.67188L7.24687 1.39062C6.74062 0.528125 5.81562 0 4.81875 0H4.75C3.23125 0 2 1.23125 2 2.75ZM12.5 2.75C12.5 3.44062 11.9406 4 11.25 4H9H8.95938L10.0469 2.15C10.2844 1.74688 10.7156 1.5 11.1812 1.5H11.25C11.9406 1.5 12.5 2.05938 12.5 2.75ZM1 9V14.5C1 15.3281 1.67188 16 2.5 16H7V9H1ZM9 16H13.5C14.3281 16 15 15.3281 15 14.5V9H9V16Z" fill="#F9F9F9"/>
</svg>
