<svg width="16" height="16" viewBox="0 0 16 16" fill="none" xmlns="http://www.w3.org/2000/svg">
<path d="M13.3346 4.24501V1.57834C13.3346 1.08945 12.9346 0.689453 12.4457 0.689453H3.55686C3.06797 0.689453 2.66797 1.08945 2.66797 1.57834V4.24501H13.3346Z" fill="#F9F9F9"/>
<path d="M13.6 4.91211H2.4C1.072 4.91211 0 5.98411 0 7.31211V11.3121C0 11.7521 0.36 12.1121 0.8 12.1121H3.2V13.7121C3.2 14.5921 3.92 15.3121 4.8 15.3121H11.2C12.08 15.3121 12.8 14.5921 12.8 13.7121V12.1121H15.2C15.64 12.1121 16 11.7521 16 11.3121V7.31211C16 5.98411 14.928 4.91211 13.6 4.91211ZM11.2 13.7121H4.8V10.5121H11.2V13.7121ZM12.8 8.51211C12.36 8.51211 12 8.15211 12 7.71211C12 7.27211 12.36 6.91211 12.8 6.91211C13.24 6.91211 13.6 7.27211 13.6 7.71211C13.6 8.15211 13.24 8.51211 12.8 8.51211Z" fill="#F9F9F9"/>
</svg>
