<svg width="16" height="16" viewBox="0 0 16 16" fill="none" xmlns="http://www.w3.org/2000/svg">
<path d="M9.60156 5.6H6.40156C5.96156 5.6 5.60156 5.24 5.60156 4.8C5.60156 4.36 5.96156 4 6.40156 4H9.60156C10.0416 4 10.4016 4.36 10.4016 4.8C10.4016 5.24 10.0416 5.6 9.60156 5.6Z" fill="#F9F9F9"/>
<path d="M9.60156 8.00039H6.40156C5.96156 8.00039 5.60156 7.64039 5.60156 7.20039C5.60156 6.76039 5.96156 6.40039 6.40156 6.40039H9.60156C10.0416 6.40039 10.4016 6.76039 10.4016 7.20039C10.4016 7.64039 10.0416 8.00039 9.60156 8.00039Z" fill="#F9F9F9"/>
<path d="M14.0008 1.2L12.8008 0L11.6008 1.2L10.4008 0L9.20078 1.2L8.00078 0L6.80078 1.2L5.60078 0L4.40078 1.2L3.20078 0V11.2H1.60078C1.16078 11.2 0.800781 11.56 0.800781 12V13.6C0.800781 14.928 1.87278 16 3.20078 16H12.8008C14.1288 16 15.2008 14.928 15.2008 13.6V0L14.0008 1.2ZM10.4008 14.4H3.20078C2.76078 14.4 2.40078 14.04 2.40078 13.6V12.8H4.80078H8.00078H10.4008V14.4ZM13.6008 13.6C13.6008 14.04 13.2408 14.4 12.8008 14.4C12.3608 14.4 12.0008 14.04 12.0008 13.6V12C12.0008 11.56 11.6408 11.2 11.2008 11.2H9.60078H8.00078H4.80078V2.4H13.6008V13.6Z" fill="#F9F9F9"/>
<path d="M11.9992 5.6C12.441 5.6 12.7992 5.24183 12.7992 4.8C12.7992 4.35817 12.441 4 11.9992 4C11.5574 4 11.1992 4.35817 11.1992 4.8C11.1992 5.24183 11.5574 5.6 11.9992 5.6Z" fill="#F9F9F9"/>
<path d="M11.9992 8.00039C12.441 8.00039 12.7992 7.64222 12.7992 7.20039C12.7992 6.75856 12.441 6.40039 11.9992 6.40039C11.5574 6.40039 11.1992 6.75856 11.1992 7.20039C11.1992 7.64222 11.5574 8.00039 11.9992 8.00039Z" fill="#F9F9F9"/>
</svg>
