<svg width="16" height="16" viewBox="0 0 16 16" fill="none" xmlns="http://www.w3.org/2000/svg">
<path d="M15.9879 6.16245L14.8696 2.16852C14.7098 1.84901 14.3903 1.60938 14.0708 1.60938H1.92923C1.60972 1.60938 1.2902 1.84901 1.21032 2.16852L0.0121465 6.16245C-0.067732 6.7216 0.251782 7.20087 0.810932 7.20087H2.56826L1.6896 13.5113C1.60972 13.9905 2.00911 14.3899 2.48838 14.3899C2.88777 14.3899 3.20729 14.0704 3.28717 13.671L3.76644 10.396H12.3134L12.7128 13.671C12.7927 14.0704 13.1122 14.3899 13.5116 14.3899C13.9909 14.3899 14.3903 13.9905 14.3104 13.5113L13.5116 7.20087H15.1891C15.7482 7.20087 16.0677 6.7216 15.9879 6.16245ZM3.76644 10.396L4.16583 7.20087H11.8342L12.2336 10.396" fill="#F9F9F9"/>
</svg>
