<svg width="16" height="14" viewBox="0 0 16 14" fill="none" xmlns="http://www.w3.org/2000/svg">
<path d="M15.8797 3.47335L13.5041 1.09778C13.2317 0.825308 12.7719 1.01263 12.7719 1.39579V2.9199H0.851459C0.383157 2.9199 0 3.30305 0 3.77136C0 4.23966 0.383157 4.62282 0.851459 4.62282H12.7719V6.14693C12.7719 6.53008 13.2317 6.7174 13.4956 6.44494L15.8712 4.06937C16.0415 3.90759 16.0415 3.63512 15.8797 3.47335Z" fill="#F9F9F9"/>
<path d="M15.1485 9.37693H3.22811V7.85282C3.22811 7.46966 2.76833 7.28234 2.50437 7.55481L0.128804 9.93038C-0.0414882 10.0922 -0.0414881 10.3646 0.120289 10.5264L2.49586 12.902C2.76833 13.1744 3.22811 12.9871 3.22811 12.604V11.0798H15.1485C15.6168 11.0798 16 10.6967 16 10.2284C16 9.76009 15.6168 9.37693 15.1485 9.37693Z" fill="#F9F9F9"/>
</svg>
