<svg width="16" height="16" viewBox="0 0 16 16" fill="none" xmlns="http://www.w3.org/2000/svg">
<path d="M12.5729 5.33333H11.811V3.80952C11.811 1.70667 10.1043 0 8.00149 0C5.89863 0 4.19196 1.70667 4.19196 3.80952V5.33333H3.43006C2.59196 5.33333 1.90625 6.01905 1.90625 6.85714V14.4762C1.90625 15.3143 2.59196 16 3.43006 16H12.5729C13.411 16 14.0967 15.3143 14.0967 14.4762V6.85714C14.0967 6.01905 13.411 5.33333 12.5729 5.33333ZM8.00149 12.1905C7.16339 12.1905 6.47768 11.5048 6.47768 10.6667C6.47768 9.82857 7.16339 9.14286 8.00149 9.14286C8.83958 9.14286 9.5253 9.82857 9.5253 10.6667C9.5253 11.5048 8.83958 12.1905 8.00149 12.1905ZM5.71577 5.33333V3.80952C5.71577 2.54476 6.73673 1.52381 8.00149 1.52381C9.26625 1.52381 10.2872 2.54476 10.2872 3.80952V5.33333H5.71577Z" fill="#F9F9F9"/>
</svg>
