<svg width="32" height="32" viewBox="0 0 32 32" fill="none" xmlns="http://www.w3.org/2000/svg">
<rect width="32" height="32" rx="8" fill="#99000F"/>
<path d="M10.6667 22.2222C10.6667 23.2 11.4667 24 12.4444 24H19.5555C20.5333 24 21.3333 23.2 21.3333 22.2222V11.5556H10.6667V22.2222ZM13.4844 16.5244C13.1378 16.1778 13.1378 15.6178 13.4844 15.2711C13.8311 14.9244 14.3911 14.9244 14.7378 15.2711L16 16.5244L17.2533 15.2711C17.6 14.9244 18.16 14.9244 18.5067 15.2711C18.8533 15.6178 18.8533 16.1778 18.5067 16.5244L17.2533 17.7778L18.5067 19.0311C18.8533 19.3778 18.8533 19.9378 18.5067 20.2844C18.16 20.6311 17.6 20.6311 17.2533 20.2844L16 19.0311L14.7467 20.2844C14.4 20.6311 13.84 20.6311 13.4933 20.2844C13.1467 19.9378 13.1467 19.3778 13.4933 19.0311L14.7467 17.7778L13.4844 16.5244ZM21.3333 8.88889H19.1111L18.48 8.25778C18.32 8.09778 18.0889 8 17.8578 8H14.1422C13.9111 8 13.68 8.09778 13.52 8.25778L12.8889 8.88889H10.6667C10.1778 8.88889 9.77777 9.28889 9.77777 9.77778C9.77777 10.2667 10.1778 10.6667 10.6667 10.6667H21.3333C21.8222 10.6667 22.2222 10.2667 22.2222 9.77778C22.2222 9.28889 21.8222 8.88889 21.3333 8.88889Z" fill="#F9F9F9"/>
</svg>
