<svg width="16" height="16" viewBox="0 0 16 16" fill="none" xmlns="http://www.w3.org/2000/svg">
<path d="M9.10689 0.905102C5.09408 0.79473 1.80658 4.01128 1.80658 8.00044H0.395395C0.0406282 8.00044 -0.132813 8.42616 0.119465 8.67055L2.31902 10.878C2.47669 11.0357 2.72109 11.0357 2.87876 10.878L5.07832 8.67055C5.33059 8.42616 5.14927 8.00044 4.80239 8.00044H3.38332C3.38332 4.92579 5.89034 2.44242 8.98075 2.48184C11.9135 2.52126 14.3811 4.98886 14.4205 7.9216C14.4599 11.0041 11.9766 13.519 8.90191 13.519C7.63264 13.519 6.45796 13.0854 5.52769 12.3522C5.21234 12.1078 4.77085 12.1315 4.48704 12.4153C4.15592 12.7543 4.17957 13.3062 4.55011 13.5979C5.74843 14.536 7.2621 15.0958 8.90191 15.0958C12.8832 15.0958 16.1076 11.8083 15.9972 7.79546C15.8948 4.098 12.8043 1.00759 9.10689 0.905102ZM8.70482 4.84695C8.38159 4.84695 8.11354 5.115 8.11354 5.43823V8.33944C8.11354 8.61537 8.26333 8.87553 8.49984 9.01743L10.9596 10.4759C11.2434 10.6415 11.606 10.5469 11.7716 10.2709C11.9371 9.98713 11.8425 9.62448 11.5666 9.45892L9.2961 8.11081V5.43035C9.2961 5.115 9.03594 4.84695 8.70482 4.84695Z" fill="#F9F9F9"/>
</svg>
