<svg width="18" height="18" viewBox="0 0 18 18" fill="none" xmlns="http://www.w3.org/2000/svg">
<path d="M12.5006 11.4733H11.7106L11.4306 11.2033C12.6306 9.80328 13.2506 7.89328 12.9106 5.86328C12.4406 3.08328 10.1206 0.863282 7.32063 0.523282C3.09063 0.00328186 -0.469374 3.56328 0.0506256 7.79328C0.390626 10.5933 2.61063 12.9133 5.39063 13.3833C7.42063 13.7233 9.33063 13.1033 10.7306 11.9033L11.0006 12.1833V12.9733L15.2506 17.2233C15.6606 17.6333 16.3306 17.6333 16.7406 17.2233C17.1506 16.8133 17.1506 16.1433 16.7406 15.7333L12.5006 11.4733ZM6.50063 11.4733C4.01063 11.4733 2.00063 9.46328 2.00063 6.97328C2.00063 4.48328 4.01063 2.47328 6.50063 2.47328C8.99063 2.47328 11.0006 4.48328 11.0006 6.97328C11.0006 9.46328 8.99063 11.4733 6.50063 11.4733Z" fill="#F9F9F9" fill-opacity="0.5"/>
</svg>
