<svg width="8" height="8" viewBox="0 0 8 8" fill="none" xmlns="http://www.w3.org/2000/svg">
<path d="M7.82253 0.183542C7.58589 -0.0530905 7.20364 -0.0530905 6.96701 0.183542L4 3.14448L1.03299 0.177474C0.79636 -0.0591581 0.414107 -0.0591581 0.177474 0.177474C-0.0591581 0.414107 -0.0591581 0.79636 0.177474 1.03299L3.14448 4L0.177474 6.96701C-0.0591581 7.20364 -0.0591581 7.58589 0.177474 7.82253C0.414107 8.05916 0.79636 8.05916 1.03299 7.82253L4 4.85552L6.96701 7.82253C7.20364 8.05916 7.58589 8.05916 7.82253 7.82253C8.05916 7.58589 8.05916 7.20364 7.82253 6.96701L4.85552 4L7.82253 1.03299C8.05309 0.802427 8.05309 0.414107 7.82253 0.183542Z" fill="#F9F9F9"/>
</svg>
