<svg width="20" height="25" viewBox="0 0 20 25" fill="none" xmlns="http://www.w3.org/2000/svg">
<path d="M10.3155 24.5C11.6693 24.5 12.777 23.3923 12.777 22.0385H7.85394C7.85394 23.3923 8.94932 24.5 10.3155 24.5ZM17.7001 17.1154V10.9615C17.7001 7.18308 15.6816 4.02 12.1616 3.18308V2.34615C12.1616 1.32462 11.337 0.5 10.3155 0.5C9.29394 0.5 8.46932 1.32462 8.46932 2.34615V3.18308C4.93701 4.02 2.93086 7.17077 2.93086 10.9615V17.1154L1.34317 18.7031C0.567782 19.4785 1.10932 20.8077 2.2047 20.8077H18.4139C19.5093 20.8077 20.0632 19.4785 19.2878 18.7031L17.7001 17.1154Z" fill="#F9F9F9"/>
</svg>
