<svg width="19" height="18" viewBox="0 0 19 18" fill="none" xmlns="http://www.w3.org/2000/svg">
<path d="M13.4789 11.4713H12.6889L12.4089 11.2013C13.6089 9.80133 14.2289 7.89133 13.8889 5.86133C13.4189 3.08133 11.0989 0.861329 8.2989 0.521329C4.0689 0.00132874 0.508897 3.56133 1.0289 7.79133C1.3689 10.5913 3.5889 12.9113 6.3689 13.3813C8.3989 13.7213 10.3089 13.1013 11.7089 11.9013L11.9789 12.1813V12.9713L16.2289 17.2213C16.6389 17.6313 17.3089 17.6313 17.7189 17.2213C18.1289 16.8113 18.1289 16.1413 17.7189 15.7313L13.4789 11.4713ZM7.4789 11.4713C4.9889 11.4713 2.9789 9.46133 2.9789 6.97133C2.9789 4.48133 4.9889 2.47133 7.4789 2.47133C9.9689 2.47133 11.9789 4.48133 11.9789 6.97133C11.9789 9.46133 9.9689 11.4713 7.4789 11.4713Z" fill="#F9F9F9" fill-opacity="0.5"/>
</svg>
