<svg width="227" height="80" viewBox="0 0 227 80" fill="none" xmlns="http://www.w3.org/2000/svg">
<path d="M40.0122 76.9822V61.1123H45.999C47.0564 61.1123 47.8536 61.1611 48.4149 61.2669C49.1957 61.397 49.8465 61.641 50.3752 62.0071C50.9039 62.3731 51.3269 62.8856 51.6441 63.5363C51.9614 64.1952 52.1241 64.9191 52.1241 65.7C52.1241 67.0503 51.6929 68.1891 50.8388 69.1245C49.9766 70.0599 48.4311 70.5236 46.1861 70.5236H42.119V76.974H40.0203L40.0122 76.9822ZM42.1108 68.6527H46.2105C47.5689 68.6527 48.5287 68.4006 49.0981 67.8962C49.6675 67.3919 49.9522 66.6761 49.9522 65.7651C49.9522 65.0981 49.7814 64.5368 49.4479 64.0569C49.1144 63.5851 48.667 63.2679 48.122 63.1215C47.7722 63.032 47.1134 62.9832 46.1617 62.9832H42.1027V68.6527H42.1108Z" fill="#F9F9F9"/>
<path d="M62.0885 76.9821V75.2902C61.1937 76.5916 59.9736 77.2424 58.4362 77.2424C57.7611 77.2424 57.1266 77.1122 56.5328 76.8519C55.9472 76.5916 55.5079 76.2663 55.2232 75.8677C54.9385 75.4773 54.7352 74.9892 54.6213 74.4198C54.5399 74.0375 54.4993 73.4274 54.4993 72.5977V65.4722H56.4515V71.8494C56.4515 72.8662 56.4922 73.5494 56.5735 73.9074C56.6955 74.4198 56.9558 74.8184 57.3544 75.1112C57.753 75.404 58.241 75.5505 58.8267 75.5505C59.4123 75.5505 59.9573 75.404 60.4698 75.1031C60.9822 74.8021 61.3483 74.3954 61.5598 73.8829C61.7713 73.3624 61.877 72.614 61.877 71.6379V65.4803H63.8292V76.9821H62.0885Z" fill="#F9F9F9"/>
<path d="M66.8876 76.9823V65.4805H68.6446V67.1155C69.4906 65.8547 70.7107 65.2202 72.305 65.2202C72.9964 65.2202 73.6309 65.3422 74.2166 65.5944C74.8022 65.8384 75.2333 66.1719 75.518 66.5705C75.8027 66.9691 76.0061 67.4571 76.1281 68.0103C76.2013 68.3682 76.2338 69.0026 76.2338 69.9055V76.9742H74.2816V69.9787C74.2816 69.1816 74.2084 68.5878 74.0539 68.1973C73.8993 67.8069 73.6309 67.4897 73.2486 67.2538C72.8581 67.0179 72.4108 66.904 71.8902 66.904C71.0605 66.904 70.3447 67.1643 69.7427 67.693C69.1408 68.2217 68.8398 69.2223 68.8398 70.6945V76.9742H66.8876V76.9823Z" fill="#F9F9F9"/>
<path d="M83.4733 75.2414L83.758 76.9659C83.213 77.0798 82.7169 77.1367 82.2857 77.1367C81.5781 77.1367 81.0331 77.0228 80.6426 76.8032C80.2522 76.5836 79.9756 76.2826 79.8211 75.9166C79.6665 75.5505 79.5852 74.7859 79.5852 73.6146V67.0015H78.1536V65.4885H79.5852V62.6415L81.5211 61.4702V65.4885H83.4815V67.0015H81.5211V73.7285C81.5211 74.2816 81.5537 74.6395 81.6269 74.8022C81.6919 74.9567 81.8058 75.0869 81.9604 75.1845C82.1149 75.274 82.3346 75.3228 82.6274 75.3228C82.847 75.3228 83.1317 75.2984 83.4815 75.2496L83.4733 75.2414Z" fill="#F9F9F9"/>
<path d="M84.6528 71.2314C84.6528 69.1002 85.2466 67.5222 86.426 66.4973C87.4184 65.6432 88.6223 65.2202 90.0458 65.2202C91.6238 65.2202 92.9171 65.7408 93.9258 66.7738C94.9263 67.8069 95.4306 69.2385 95.4306 71.0687C95.4306 72.5491 95.211 73.7123 94.7636 74.5583C94.3244 75.4043 93.6736 76.0631 92.8277 76.5349C91.9817 77.0067 91.0544 77.2426 90.0539 77.2426C88.4433 77.2426 87.1418 76.7301 86.1495 75.6971C85.1571 74.664 84.6609 73.1755 84.6609 71.2395L84.6528 71.2314ZM86.6538 71.2314C86.6538 72.7037 86.971 73.8099 87.6136 74.542C88.2562 75.2741 89.0615 75.6401 90.0376 75.6401C91.0137 75.6401 91.8109 75.2741 92.4535 74.5339C93.0961 73.7937 93.4133 72.6793 93.4133 71.1663C93.4133 69.7428 93.088 68.6691 92.4454 67.937C91.7946 67.205 90.9975 66.8389 90.0376 66.8389C89.0778 66.8389 88.2562 67.205 87.6136 67.9289C86.971 68.6529 86.6538 69.7591 86.6538 71.2314Z" fill="#F9F9F9"/>
<path d="M111.333 76.9822V75.5343C110.601 76.6731 109.535 77.2425 108.12 77.2425C107.201 77.2425 106.363 76.9903 105.59 76.486C104.826 75.9817 104.224 75.274 103.801 74.3711C103.378 73.4682 103.166 72.427 103.166 71.2475C103.166 70.0681 103.353 69.0594 103.744 68.124C104.126 67.1886 104.704 66.4728 105.468 65.9766C106.233 65.4804 107.087 65.2282 108.031 65.2282C108.722 65.2282 109.34 65.3746 109.885 65.6675C110.43 65.9603 110.869 66.3426 111.203 66.8063V61.1123H113.139V76.9822H111.333ZM105.175 71.2475C105.175 72.7198 105.485 73.818 106.103 74.55C106.721 75.2821 107.453 75.64 108.299 75.64C109.145 75.64 109.877 75.2902 110.471 74.5907C111.065 73.8912 111.366 72.8337 111.366 71.4021C111.366 69.8322 111.065 68.6771 110.455 67.9369C109.844 67.1967 109.104 66.8307 108.209 66.8307C107.315 66.8307 106.623 67.1804 106.038 67.8881C105.46 68.5958 105.167 69.7102 105.167 71.2313L105.175 71.2475Z" fill="#F9F9F9"/>
<path d="M124.071 73.2809L126.088 73.5331C125.771 74.7125 125.186 75.6235 124.323 76.2743C123.461 76.925 122.371 77.2504 121.029 77.2504C119.345 77.2504 118.011 76.7298 117.027 75.6968C116.043 74.6637 115.547 73.2077 115.547 71.3368C115.547 69.4659 116.043 67.9042 117.043 66.8305C118.044 65.7568 119.329 65.228 120.923 65.228C122.518 65.228 123.713 65.7486 124.689 66.7979C125.665 67.8472 126.154 69.3195 126.154 71.2148C126.154 71.3287 126.154 71.4995 126.145 71.7354H117.572C117.645 72.9962 118.003 73.9642 118.646 74.6393C119.288 75.3145 120.094 75.648 121.045 75.648C121.761 75.648 122.371 75.4609 122.875 75.0867C123.38 74.7125 123.778 74.1106 124.079 73.289L124.071 73.2809ZM117.67 70.133H124.087C123.998 69.165 123.754 68.441 123.347 67.953C122.729 67.2046 121.924 66.8305 120.931 66.8305C120.037 66.8305 119.28 67.1314 118.678 67.7252C118.068 68.3272 117.726 69.1243 117.661 70.1248L117.67 70.133Z" fill="#F9F9F9"/>
<path d="M137.891 76.9822L133.515 65.4805H135.573L138.038 72.3701C138.306 73.1104 138.55 73.8831 138.778 74.6884C138.949 74.0783 139.193 73.3544 139.502 72.5003L142.056 65.4805H144.057L139.705 76.9822H137.883H137.891Z" fill="#F9F9F9"/>
<path d="M153.655 73.2809L155.673 73.5331C155.355 74.7125 154.77 75.6235 153.908 76.2743C153.045 76.925 151.955 77.2504 150.613 77.2504C148.929 77.2504 147.595 76.7298 146.611 75.6968C145.627 74.6637 145.131 73.2077 145.131 71.3368C145.131 69.4659 145.627 67.9042 146.627 66.8305C147.62 65.7649 148.913 65.228 150.507 65.228C152.102 65.228 153.297 65.7486 154.274 66.7979C155.25 67.8472 155.738 69.3195 155.738 71.2148C155.738 71.3287 155.738 71.4995 155.73 71.7354H147.156C147.229 72.9962 147.587 73.9642 148.23 74.6393C148.872 75.3145 149.678 75.648 150.629 75.648C151.345 75.648 151.955 75.4609 152.46 75.0867C152.964 74.7125 153.363 74.1106 153.663 73.289L153.655 73.2809ZM147.254 70.133H153.672C153.582 69.165 153.338 68.441 152.931 67.953C152.313 67.2046 151.508 66.8305 150.516 66.8305C149.621 66.8305 148.864 67.1314 148.262 67.7252C147.652 68.3272 147.311 69.1243 147.246 70.1248L147.254 70.133Z" fill="#F9F9F9"/>
<path d="M158.113 76.9823V65.4805H159.87V67.1155C160.716 65.8547 161.936 65.2202 163.53 65.2202C164.222 65.2202 164.856 65.3422 165.442 65.5944C166.027 65.8384 166.459 66.1719 166.743 66.5705C167.028 66.9691 167.231 67.4571 167.353 68.0103C167.427 68.3682 167.459 69.0026 167.459 69.9055V76.9742H165.507V69.9787C165.507 69.1816 165.434 68.5878 165.279 68.1973C165.125 67.8069 164.856 67.4897 164.474 67.2538C164.083 67.0179 163.636 66.904 163.115 66.904C162.286 66.904 161.57 67.1643 160.968 67.693C160.366 68.2217 160.065 69.2223 160.065 70.6945V76.9742H158.113V76.9823Z" fill="#F9F9F9"/>
<path d="M174.699 75.2414L174.983 76.9659C174.438 77.0798 173.942 77.1367 173.511 77.1367C172.803 77.1367 172.258 77.0228 171.868 76.8032C171.477 76.5836 171.201 76.2826 171.046 75.9166C170.892 75.5505 170.81 74.7859 170.81 73.6146V67.0015H169.379V65.4885H170.81V62.6415L172.746 61.4702V65.4885H174.707V67.0015H172.746V73.7285C172.746 74.2816 172.779 74.6395 172.852 74.8022C172.917 74.9567 173.031 75.0869 173.186 75.1845C173.34 75.274 173.56 75.3228 173.853 75.3228C174.072 75.3228 174.357 75.2984 174.707 75.2496L174.699 75.2414Z" fill="#F9F9F9"/>
<path d="M184.11 75.5668C183.386 76.1768 182.694 76.6161 182.027 76.8682C181.36 77.1204 180.645 77.2506 179.88 77.2506C178.619 77.2506 177.643 76.9415 176.968 76.3233C176.293 75.7051 175.951 74.916 175.951 73.9562C175.951 73.3949 176.081 72.8825 176.333 72.4107C176.594 71.947 176.927 71.5729 177.342 71.2882C177.757 71.0035 178.221 70.792 178.741 70.6456C179.124 70.548 179.701 70.4503 180.474 70.3527C182.044 70.1657 183.207 69.9379 183.947 69.6776C183.947 69.4092 183.955 69.2384 183.955 69.1651C183.955 68.368 183.768 67.8149 183.402 67.4895C182.906 67.0502 182.166 66.8306 181.181 66.8306C180.262 66.8306 179.587 66.9933 179.148 67.3105C178.709 67.6359 178.391 68.1972 178.18 69.0187L176.277 68.7584C176.447 67.945 176.732 67.2861 177.131 66.7818C177.529 66.2775 178.099 65.8952 178.855 65.6186C179.603 65.3502 180.474 65.2119 181.466 65.2119C182.459 65.2119 183.248 65.3258 183.858 65.5617C184.468 65.7976 184.923 66.0823 185.208 66.432C185.493 66.7818 185.696 67.2211 185.818 67.7579C185.883 68.0914 185.916 68.6852 185.916 69.5556V72.1504C185.916 73.9643 185.956 75.1113 186.038 75.5912C186.119 76.0711 186.282 76.5347 186.534 76.974H184.5C184.297 76.5673 184.167 76.0955 184.11 75.5586V75.5668ZM183.947 71.215C183.239 71.4997 182.182 71.7518 180.767 71.9552C179.969 72.0691 179.4 72.1992 179.067 72.3456C178.733 72.492 178.481 72.7035 178.294 72.9801C178.115 73.2567 178.025 73.5658 178.025 73.9074C178.025 74.428 178.221 74.8591 178.619 75.2089C179.01 75.5586 179.587 75.7295 180.344 75.7295C181.1 75.7295 181.759 75.5668 182.345 75.2333C182.93 74.9079 183.361 74.4524 183.63 73.883C183.841 73.4437 183.947 72.793 183.947 71.9308V71.215Z" fill="#F9F9F9"/>
<path d="M29.5679 22.5319H21.7916V40.0042C21.7916 43.0464 23.573 43.7053 26.3142 43.7053C27.3473 43.7053 28.4616 43.5589 29.5679 43.5589V52.8156C27.2659 52.8888 24.9802 53.1816 22.6782 53.1816C11.9411 53.1816 9.19982 50.0744 9.19982 39.63V22.5238H2.83887V14.3733H9.20796V7.48362L21.7997 2.74951V14.3733H29.576V22.5238L29.5679 22.5319Z" fill="#F9F9F9"/>
<path d="M203.599 13.2672C196.555 13.2672 190.251 16.5372 186.493 21.8325V14.3735H178.717V2.75781L166.125 7.49193V14.3816H159.756V17.9607C156.462 14.1783 150.556 13.2754 144.504 13.2754C140.136 13.2754 135.695 14.0156 132.287 15.9434C128.879 17.9363 126.511 21.1981 126.292 26.2332H138.062C138.656 22.9795 140.876 21.4177 144.358 21.4177C146.953 21.4177 150.434 22.5321 150.434 25.4116C150.434 27.7787 149.247 28.527 147.099 28.9663C139.803 30.4548 129.106 30.0318 125.771 37.133V29.8529C125.771 22.524 124.437 13.2672 112.228 13.2672C107.046 13.2672 103.256 15.4146 100.222 19.4899C98.1475 14.8209 93.8526 13.2672 89.0453 13.2672C84.2379 13.2672 80.3091 15.7888 78.0153 19.6363H77.8607V14.3735H65.6431V52.8076H78.2349V34.0745C78.2349 26.225 80.1627 23.6302 84.6853 23.6302C88.0854 23.6302 89.4194 26.4446 89.4194 30.9673V52.8076H102.011V34.0013C102.011 27.7787 102.532 23.6302 107.933 23.6302C111.203 23.6302 113.188 26.0786 113.188 30.2271V52.8076H125.779V47.4879C127.756 51.8478 132.368 53.922 137.851 53.922C142.438 53.922 147.254 52.588 150.507 49.1879C150.654 50.4406 150.808 51.6282 151.248 52.8158H163.904C162.432 49.7817 162.432 46.2271 162.432 42.9652V26.1599C162.432 24.8178 162.294 23.6139 162.042 22.5321H166.125V39.6383C166.125 50.0827 168.866 53.1899 179.603 53.1899C181.905 53.1899 184.191 52.8971 186.493 52.8239V45.9993C190.129 51.1157 196.254 53.9302 203.892 53.9302C212.482 53.9302 220.706 50.0827 223 41.2001H211.221C210.034 44.0146 207.073 45.4218 204.039 45.4218C198.703 45.4218 195.669 41.9403 195.449 36.6856H223.667C224.252 23.6465 217.371 13.2835 203.591 13.2835L203.599 13.2672ZM142.585 46.1539C139.77 46.1539 137.33 44.893 137.33 41.7776C137.33 38.6622 139.697 37.5641 142.511 36.889C145.253 36.1488 148.515 35.9291 150.288 34.8148C150.581 42.7375 148.588 46.1457 142.585 46.1457V46.1539ZM183.239 43.7055C180.498 43.7055 178.725 43.0466 178.725 40.0044V22.5321H186.054C184.045 25.6312 182.865 29.3486 182.865 33.4889C182.865 37.377 183.654 40.769 185.078 43.6241C184.451 43.6648 183.833 43.7055 183.239 43.7055ZM195.457 29.6414C196.197 24.9724 199.158 21.7919 203.608 21.7919C207.821 21.7919 210.863 25.3547 211.091 29.6414H195.465H195.457Z" fill="#F9F9F9"/>
<path d="M68.9456 32.9273C68.9456 20.8887 59.1846 11.1357 47.1459 11.1357C35.1073 11.1357 25.3544 20.8968 25.3544 32.9273C25.3544 44.9578 35.1154 54.7189 47.1459 54.7189C59.1764 54.7189 68.9456 44.9578 68.9456 32.9273Z" fill="#E20D18"/>
<path d="M48.6019 27.8515C48.6019 27.8515 43.9817 25.4275 42.9487 23.8495C45.2181 24.7931 48.4637 25.1428 49.7977 24.6548C51.1236 24.1667 50.302 19.1317 49.1225 18.0498C50.5542 18.3996 53.0107 22.4423 53.2466 23.7275C54.4342 22.5968 56.5491 21.7102 59.7133 20.9293C55.9065 23.9308 54.8734 25.6472 55.0686 26.5826C57.4357 26.8348 61.0717 29.698 61.0717 30.8287C58.3711 28.5511 54.7677 29.2913 54.0763 29.7793C54.4179 31.9512 54.0112 35.7417 53.7184 36.4819C52.6365 33.822 52.0021 31.8454 50.8226 30.5114C49.8953 29.4702 46.4301 33.4153 46.178 34.1067C45.8933 33.2201 47.2273 29.0798 48.6101 27.8515H48.6019Z" fill="#F9F9F9"/>
</svg>
