<svg width="280" height="45" viewBox="0 0 280 45" fill="none" xmlns="http://www.w3.org/2000/svg">
<path d="M20.8291 19.3974H14.7732V32.3441C14.7732 34.7094 16.1579 35.2266 18.2914 35.2266C19.0996 35.2266 19.9616 35.1135 20.8291 35.1135V42.3223C19.0403 42.3815 17.2516 42.6078 15.4629 42.6078C7.10106 42.6078 4.96212 40.1833 4.96212 32.0532V19.392H0V12.3771H4.96212V7.01092L14.7732 3.32031V12.3771H20.8291V19.392V19.3974Z" fill="#F9F9F9"/>
<path fill-rule="evenodd" clip-rule="evenodd" d="M240.85 12.3802H242.752V12.3732H247.714V7.00702L257.525 3.31641V12.3732H263.581V19.3881V19.3935H257.525V32.3402C257.525 34.7055 258.91 35.2227 261.043 35.2227C261.44 35.2227 261.85 35.1954 262.267 35.1676C262.7 35.1388 263.14 35.1095 263.581 35.1095V42.3184C262.821 42.3435 262.062 42.3988 261.302 42.4541C260.273 42.529 259.244 42.6039 258.215 42.6039C249.853 42.6039 247.714 40.1794 247.714 32.0493V19.3881H245.872V19.3951H240.85V42.4708H230.985V19.449H226.789C227.952 21.7305 228.536 24.3464 228.536 27.2926C228.536 31.9261 227.124 35.7298 224.301 38.6877C221.478 41.651 217.572 43.1272 212.588 43.1272C208.143 43.1272 204.544 41.8988 201.802 39.4366C200.247 38.033 199.051 36.4278 198.214 34.621C197.995 35.5298 197.62 36.4883 197.039 37.481C195.552 40.0186 192.276 42.7664 184.248 42.7664C175.391 42.7664 172.145 39.6681 170.679 35.5978C168.183 40.8659 162.517 43.1882 156.631 43.1882C150.683 43.1882 145.904 40.9954 143.075 37.0085V42.3262C142.316 42.3513 141.556 42.4066 140.797 42.4619C139.767 42.5368 138.738 42.6117 137.709 42.6117C129.347 42.6117 127.208 40.1926 127.208 32.0571V19.3959H124.03C124.058 19.5191 124.084 19.6303 124.109 19.7334C124.253 20.3382 124.331 20.6688 124.331 21.5618V34.654V34.6541C124.331 37.1917 124.331 39.961 125.479 42.3262H115.619C115.269 41.4049 115.156 40.4836 115.037 39.503C112.505 42.1538 108.755 43.1936 105.178 43.1936C100.905 43.1936 97.3117 41.5773 95.7708 38.183V42.3262H85.9651V24.7352C85.9651 21.5025 84.4134 19.5952 81.8704 19.5952C77.6626 19.5952 77.2585 22.8225 77.2585 27.6715V42.3262H67.4528V25.3063C67.4528 21.7827 66.413 19.5899 63.7622 19.5899C60.2386 19.5899 58.7408 21.6103 58.7408 27.7254V42.3208H48.9297V12.3756H58.4499V16.4757H58.5738C60.3571 13.4801 63.4174 11.5136 67.1672 11.5136C70.9171 11.5136 74.2575 12.7259 75.8739 16.3626C78.2391 13.1892 81.1862 11.5136 85.227 11.5136C94.7364 11.5136 95.7762 18.7224 95.7762 24.4334V30.1067C97.8086 25.7763 103.356 25.0363 108.396 24.3639C109.796 24.1771 111.157 23.9956 112.392 23.7438C114.068 23.399 114.989 22.8225 114.989 20.9745C114.989 18.7278 112.279 17.8604 110.258 17.8604C107.548 17.8604 105.819 19.078 105.356 21.6103H96.1857C96.3581 17.688 98.2061 15.1503 100.857 13.5987C103.508 12.1009 106.967 11.519 110.372 11.519C115.081 11.519 119.687 12.2194 122.252 15.1665V12.381H127.214V7.01483L137.025 3.32422V12.3864H143.081V18.1944C146.006 14.0674 150.914 11.519 156.405 11.519H156.41C163.378 11.519 168.082 14.9236 170.399 20.0914C171.415 9.27459 188.972 11.9275 191.107 12.6704C194.275 13.7749 196.381 16.5657 197.755 20.4503L187.669 20.5311C187.341 19.3135 185.315 17.8534 183.429 17.8534C181.258 17.8534 180.057 18.8124 180.057 20.1863C180.057 22.1718 182.871 22.5084 185.15 22.7811C185.277 22.7963 185.402 22.8112 185.525 22.8263C192.894 23.7369 195.299 25.3204 196.749 27.3179C196.779 22.7882 198.201 19.0444 201.021 16.0968C203.871 13.1174 207.718 11.625 212.561 11.625C217.597 11.625 221.515 13.0728 224.315 15.9683V12.3802H230.985C230.985 12.3802 230.98 10.473 231.325 8.15622C231.551 6.64226 231.971 5.40846 232.596 4.44944C234.417 1.63703 238.566 0.322419 246.901 1.55083L246.933 8.1185C246.702 8.10148 246.466 8.07968 246.226 8.05765C243.742 7.82859 240.973 7.57344 240.85 12.3802ZM171.956 26.1559C172.071 27.3165 172.101 28.5185 172.045 29.7512H150.058C150.23 33.8459 152.595 36.5559 156.749 36.5559C159.109 36.5559 161.415 35.4622 162.342 33.2694H170.027C170.017 33.224 170.007 33.1786 169.998 33.1331H179.927C180.547 35.0834 182.406 36.5597 184.782 36.5597C187.642 36.5597 188.919 35.0188 188.919 33.7796C188.919 32.2602 188.057 31.6299 183.273 30.7193C177.326 29.5901 173.787 28.2994 171.956 26.1559ZM108.868 37.1378C106.676 37.1378 104.774 36.1518 104.774 33.7273C104.774 31.3028 106.616 30.4462 108.809 29.9182C109.544 29.7196 110.328 29.569 111.095 29.4213L111.096 29.4213C112.557 29.1404 113.961 28.8705 114.865 28.3019C115.091 34.4762 113.54 37.1324 108.863 37.1324L108.868 37.1378ZM140.538 35.2251C138.404 35.2251 137.025 34.7079 137.025 32.3427V19.3959H142.736C141.173 21.8096 140.252 24.0401 140.252 27.2674C140.252 30.2953 140.866 32.9407 141.976 35.1659L141.944 35.168C141.465 35.1996 140.996 35.2305 140.543 35.2305L140.538 35.2251ZM150.058 24.2664C150.634 20.6297 152.94 18.1459 156.405 18.1459C159.686 18.1459 162.056 20.9206 162.234 24.2664H150.058ZM212.642 35.3257C208.714 35.3257 206.381 31.0317 206.381 27.4381L206.376 27.4327C206.376 23.8983 208.714 19.5719 212.717 19.5719C215.697 19.5719 218.876 22.5729 218.876 27.3195C218.876 31.1502 217.033 35.3257 212.642 35.3257Z" fill="#F9F9F9"/>
<path d="M50.752 26.8284C50.752 17.4537 43.1499 9.85156 33.7698 9.85156C24.3897 9.85156 16.793 17.4537 16.793 26.8284C16.793 36.2031 24.3951 43.8052 33.7698 43.8052C43.1445 43.8052 50.752 36.2031 50.752 26.8284Z" fill="#E20D18"/>
<path d="M34.9072 22.8742C34.9072 22.8742 31.3028 20.9831 30.5 19.7547C32.2672 20.4874 34.7994 20.7622 35.8339 20.3797C36.8683 19.9971 36.2272 16.0803 35.3059 15.2344C36.4211 15.5092 38.3338 18.6556 38.5224 19.6577C39.4491 18.7795 41.0977 18.0899 43.5599 17.4811C40.5967 19.8194 39.7885 21.1609 39.9393 21.8883C41.782 22.0876 44.6159 24.3127 44.6159 25.1963C42.5093 23.4238 39.7023 23.9949 39.1635 24.3774C39.4275 26.0692 39.115 29.0216 38.8833 29.5981C38.0429 27.5238 37.5472 25.9829 36.6259 24.9485C35.9039 24.1349 33.2047 27.2114 33.0053 27.7447C32.779 27.0551 33.8242 23.8278 34.8964 22.8742H34.9072Z" fill="#F9F9F9"/>
<path d="M278.768 6.1207C278.768 9.13679 276.405 11.5216 273.393 11.5216C270.38 11.5216 267.992 9.12802 267.992 6.1207C267.992 3.11337 270.389 0.746094 273.427 0.746094C276.465 0.746094 278.768 3.10461 278.768 6.1207ZM269.336 6.1207C269.336 8.51428 271.09 10.4081 273.427 10.4081C275.695 10.4432 277.424 8.50551 277.424 6.147C277.424 3.78849 275.695 1.82452 273.359 1.82452C271.022 1.82452 269.327 3.75342 269.327 6.11193L269.336 6.1207ZM272.563 8.90006H271.347V3.52546C271.827 3.46408 272.503 3.35887 273.359 3.35887C274.351 3.35887 274.796 3.52546 275.147 3.78849C275.464 4.01645 275.687 4.41099 275.687 4.93706C275.687 5.59464 275.207 6.01548 274.6 6.21714V6.27852C275.113 6.4451 275.37 6.86595 275.524 7.5849C275.687 8.4003 275.815 8.6984 275.909 8.89129H274.634C274.471 8.6984 274.377 8.23371 274.214 7.5849C274.12 7.02377 273.804 6.76951 273.127 6.76951H272.554V8.90006H272.563ZM272.597 5.89274H273.17C273.838 5.89274 274.386 5.66478 274.386 5.10364C274.386 4.61265 274.035 4.28825 273.264 4.28825C272.948 4.28825 272.725 4.32332 272.597 4.34962V5.89274Z" fill="#F9F9F9"/>
</svg>
