<svg width="106" height="106" viewBox="0 0 106 106" fill="none" xmlns="http://www.w3.org/2000/svg">
<path d="M105.169 53.0263C105.169 24.1336 81.6437 0.726562 52.6294 0.726562C23.615 0.726562 0.109375 24.1531 0.109375 53.0263C0.109375 81.8995 23.6346 105.326 52.6294 105.326C81.6241 105.326 105.169 81.8995 105.169 53.0263Z" fill="#E20D18"/>
<path d="M56.1406 40.8445C56.1406 40.8445 45.0054 35.0269 42.5156 31.2396C47.9852 33.5041 55.8074 34.3436 59.0225 33.1723C62.218 32.0009 60.2379 19.9168 57.3953 17.3203C60.8457 18.1598 66.7662 27.8623 67.3347 30.9467C70.1969 28.2332 75.2941 26.1053 82.9201 24.2311C73.7453 31.4348 71.2556 35.554 71.7261 37.799C77.4309 38.4042 86.1941 45.276 86.1941 47.9896C79.6854 42.5234 71.0007 44.2999 69.3343 45.4712C70.1577 50.6836 69.1775 59.7809 68.4718 61.5574C65.8644 55.1737 64.3352 50.4298 61.4926 47.2282C59.2577 44.7294 50.9063 54.1976 50.2985 55.857C49.6124 53.7291 52.8275 43.7923 56.1602 40.8445H56.1406Z" fill="#F9F9F9"/>
</svg>
