<svg width="24" height="24" viewBox="0 0 24 24" fill="none" xmlns="http://www.w3.org/2000/svg">
<path d="M18 0H6C4.68 0 3.6 1.08 3.6 2.4V4.8C3.6 6.12 4.68 7.2 6 7.2H18C19.32 7.2 20.4 6.12 20.4 4.8V2.4C20.4 1.08 19.32 0 18 0ZM17.4 4.8H6.6C6.264 4.8 6 4.536 6 4.2V3C6 2.664 6.264 2.4 6.6 2.4H17.4C17.736 2.4 18 2.664 18 3V4.2C18 4.536 17.736 4.8 17.4 4.8ZM21.6 24H2.4C1.08 24 0 22.92 0 21.6V20.4H24V21.6C24 22.92 22.92 24 21.6 24ZM19.836 9.828C19.452 8.964 18.588 8.4 17.64 8.4H6.36C5.412 8.4 4.548 8.964 4.164 9.828L0 19.2H24L19.836 9.828ZM9 16.8H7.8C7.464 16.8 7.2 16.536 7.2 16.2C7.2 15.864 7.464 15.6 7.8 15.6H9C9.336 15.6 9.6 15.864 9.6 16.2C9.6 16.536 9.336 16.8 9 16.8ZM9 14.4H7.8C7.464 14.4 7.2 14.136 7.2 13.8C7.2 13.464 7.464 13.2 7.8 13.2H9C9.336 13.2 9.6 13.464 9.6 13.8C9.6 14.136 9.336 14.4 9 14.4ZM9 12H7.8C7.464 12 7.2 11.736 7.2 11.4C7.2 11.064 7.464 10.8 7.8 10.8H9C9.336 10.8 9.6 11.064 9.6 11.4C9.6 11.736 9.336 12 9 12ZM12.6 16.8H11.4C11.064 16.8 10.8 16.536 10.8 16.2C10.8 15.864 11.064 15.6 11.4 15.6H12.6C12.936 15.6 13.2 15.864 13.2 16.2C13.2 16.536 12.936 16.8 12.6 16.8ZM12.6 14.4H11.4C11.064 14.4 10.8 14.136 10.8 13.8C10.8 13.464 11.064 13.2 11.4 13.2H12.6C12.936 13.2 13.2 13.464 13.2 13.8C13.2 14.136 12.936 14.4 12.6 14.4ZM12.6 12H11.4C11.064 12 10.8 11.736 10.8 11.4C10.8 11.064 11.064 10.8 11.4 10.8H12.6C12.936 10.8 13.2 11.064 13.2 11.4C13.2 11.736 12.936 12 12.6 12ZM16.2 16.8H15C14.664 16.8 14.4 16.536 14.4 16.2C14.4 15.864 14.664 15.6 15 15.6H16.2C16.536 15.6 16.8 15.864 16.8 16.2C16.8 16.536 16.536 16.8 16.2 16.8ZM16.2 14.4H15C14.664 14.4 14.4 14.136 14.4 13.8C14.4 13.464 14.664 13.2 15 13.2H16.2C16.536 13.2 16.8 13.464 16.8 13.8C16.8 14.136 16.536 14.4 16.2 14.4ZM16.2 12H15C14.664 12 14.4 11.736 14.4 11.4C14.4 11.064 14.664 10.8 15 10.8H16.2C16.536 10.8 16.8 11.064 16.8 11.4C16.8 11.736 16.536 12 16.2 12Z" fill="#F9F9F9"/>
</svg>
