<svg width="24" height="24" viewBox="0 0 24 24" fill="none" xmlns="http://www.w3.org/2000/svg">
<path d="M2.84846 4.15379H21.1515C21.8706 4.15379 22.4589 3.56547 22.4589 2.84643C22.4589 2.12738 21.8706 1.53906 21.1515 1.53906H2.84846C2.12941 1.53906 1.5411 2.12738 1.5411 2.84643C1.5411 3.56547 2.12941 4.15379 2.84846 4.15379ZM22.6681 6.50704C22.5504 5.90565 22.0144 5.46115 21.3869 5.46115H2.61314C1.9856 5.46115 1.44958 5.90565 1.33192 6.50704L0.0245582 13.0439C-0.132325 13.8544 0.482135 14.6127 1.30577 14.6127H1.5411V21.1495C1.5411 21.8686 2.12941 22.4569 2.84846 22.4569H13.3074C14.0264 22.4569 14.6147 21.8686 14.6147 21.1495V14.6127H19.8442V21.1495C19.8442 21.8686 20.4325 22.4569 21.1515 22.4569C21.8706 22.4569 22.4589 21.8686 22.4589 21.1495V14.6127H22.6942C23.5179 14.6127 24.1323 13.8544 23.9754 13.0439L22.6681 6.50704ZM12 19.8421H4.15582V14.6127H12V19.8421Z" fill="#F9F9F9"/>
</svg>
