<svg width="24" height="24" viewBox="0 0 24 24" fill="none" xmlns="http://www.w3.org/2000/svg">
<path d="M12.0013 24C13.3551 24 14.4628 22.8923 14.4628 21.5385H9.53973C9.53973 22.8923 10.6351 24 12.0013 24ZM19.3859 16.6154V10.4615C19.3859 6.68308 17.3674 3.52 13.8474 2.68308V1.84615C13.8474 0.824615 13.0228 0 12.0013 0C10.9797 0 10.1551 0.824615 10.1551 1.84615V2.68308C6.6228 3.52 4.61665 6.67077 4.61665 10.4615V16.6154L3.02896 18.2031C2.25357 18.9785 2.79511 20.3077 3.8905 20.3077H20.0997C21.1951 20.3077 21.749 18.9785 20.9736 18.2031L19.3859 16.6154Z" fill="#F9F9F9"/>
</svg>
