<svg width="128" height="128" viewBox="0 0 128 128" fill="none" xmlns="http://www.w3.org/2000/svg">
<path d="M123.39 24.8806L59.4168 88.902C56.9218 91.3988 52.8915 91.3988 50.3966 88.902L32.2922 70.7839C29.7972 68.2871 29.7972 64.2538 32.2922 61.7569C34.7871 59.2601 38.8174 59.2601 41.3124 61.7569L54.8747 75.3295L114.306 15.8536C116.801 13.3568 120.831 13.3568 123.326 15.8536C125.885 18.3504 125.885 22.3838 123.39 24.8806ZM88.0767 4.71387C77.2653 0.296397 64.9824 -1.24012 52.1878 1.06465C26.1508 5.73821 5.35953 26.7372 0.945392 52.7939C-6.34754 96.0084 29.6053 133.013 72.5312 127.443C97.8646 124.178 119.104 105.291 125.757 80.6432C128.316 71.2321 128.572 62.1411 127.1 53.6262C126.269 48.5045 119.935 46.5198 116.225 50.1691C114.753 51.6415 114.114 53.8183 114.498 55.867C115.905 64.3818 115.265 73.4728 111.171 83.1401C103.75 100.49 87.6289 113.23 68.8848 114.959C36.2585 117.968 9.19792 90.3105 13.2282 57.4675C15.9791 34.8039 34.2114 16.3658 56.7939 13.2287C67.8612 11.6922 78.3528 13.8049 87.309 18.4144C89.804 19.6949 92.8107 19.2467 94.7939 17.2621C97.8646 14.189 97.0969 9.0033 93.2585 7.01864C91.5312 6.25038 89.804 5.41811 88.0767 4.71387Z" fill="#74A016"/>
</svg>
