<svg width="17" height="16" viewBox="0 0 17 16" fill="none" xmlns="http://www.w3.org/2000/svg">
<path d="M8.03906 0C3.62306 0 0.0390625 3.584 0.0390625 8C0.0390625 12.416 3.62306 16 8.03906 16C12.4551 16 16.0391 12.416 16.0391 8C16.0391 3.584 12.4551 0 8.03906 0ZM8.83906 13.6H7.23906V12H8.83906V13.6ZM10.4951 7.4L9.77506 8.136C9.37506 8.544 9.08706 8.912 8.94306 9.488C8.87906 9.744 8.83906 10.032 8.83906 10.4H7.23906V10C7.23906 9.632 7.30306 9.28 7.41506 8.952C7.57506 8.488 7.83906 8.072 8.17506 7.736L9.16706 6.728C9.53506 6.376 9.71106 5.848 9.60706 5.288C9.50306 4.712 9.05506 4.224 8.49506 4.064C7.60706 3.816 6.78306 4.32 6.51906 5.08C6.42306 5.376 6.17506 5.6 5.86306 5.6H5.62306C5.15906 5.6 4.83906 5.152 4.96706 4.704C5.31106 3.528 6.31106 2.632 7.55106 2.44C8.76706 2.248 9.92706 2.88 10.6471 3.88C11.5911 5.184 11.3111 6.584 10.4951 7.4Z" fill="#F9F9F9"/>
</svg>
