<svg width="49" height="48" viewBox="0 0 49 48" fill="none" xmlns="http://www.w3.org/2000/svg">
<path d="M0.203125 0H48.2031V40C48.2031 44.4183 44.6214 48 40.2031 48H8.20313C3.78485 48 0.203125 44.4183 0.203125 40V0Z" fill="#F9F9F9"/>
<rect x="8.20312" y="8" width="32" height="32" rx="8" fill="#EBEBEB"/>
<path d="M31.0603 25.1429H25.346V30.8571C25.346 31.4857 24.8317 32 24.2031 32C23.5746 32 23.0603 31.4857 23.0603 30.8571V25.1429H17.346C16.7174 25.1429 16.2031 24.6286 16.2031 24C16.2031 23.3714 16.7174 22.8571 17.346 22.8571H23.0603V17.1429C23.0603 16.5143 23.5746 16 24.2031 16C24.8317 16 25.346 16.5143 25.346 17.1429V22.8571H31.0603C31.6888 22.8571 32.2031 23.3714 32.2031 24C32.2031 24.6286 31.6888 25.1429 31.0603 25.1429Z" fill="#1F2023"/>
</svg>
