<svg width="96" height="96" viewBox="0 0 96 96" fill="none" xmlns="http://www.w3.org/2000/svg">
<path d="M57.072 32.16L48 41.232L38.928 32.16C37.056 30.288 34.032 30.288 32.16 32.16C30.288 34.032 30.288 37.056 32.16 38.928L41.232 48L32.16 57.072C30.288 58.944 30.288 61.968 32.16 63.84C34.032 65.712 37.056 65.712 38.928 63.84L48 54.768L57.072 63.84C58.944 65.712 61.968 65.712 63.84 63.84C65.712 61.968 65.712 58.944 63.84 57.072L54.768 48L63.84 38.928C65.712 37.056 65.712 34.032 63.84 32.16C61.968 30.336 58.896 30.336 57.072 32.16ZM48 0C21.456 0 0 21.456 0 48C0 74.544 21.456 96 48 96C74.544 96 96 74.544 96 48C96 21.456 74.544 0 48 0ZM48 86.4C26.832 86.4 9.6 69.168 9.6 48C9.6 26.832 26.832 9.6 48 9.6C69.168 9.6 86.4 26.832 86.4 48C86.4 69.168 69.168 86.4 48 86.4Z" fill="#99000F"/>
</svg>
