<svg width="16" height="16" viewBox="0 0 16 16" fill="none" xmlns="http://www.w3.org/2000/svg">
<path d="M8 0C3.584 0 0 3.584 0 8C0 12.416 3.584 16 8 16C12.416 16 16 12.416 16 8C16 3.584 12.416 0 8 0ZM8.8 13.6H7.2V12H8.8V13.6ZM10.456 7.4L9.736 8.136C9.336 8.544 9.048 8.912 8.904 9.488C8.84 9.744 8.8 10.032 8.8 10.4H7.2V10C7.2 9.632 7.264 9.28 7.376 8.952C7.536 8.488 7.8 8.072 8.136 7.736L9.128 6.728C9.496 6.376 9.672 5.848 9.568 5.288C9.464 4.712 9.016 4.224 8.456 4.064C7.568 3.816 6.744 4.32 6.48 5.08C6.384 5.376 6.136 5.6 5.824 5.6H5.584C5.12 5.6 4.8 5.152 4.928 4.704C5.272 3.528 6.272 2.632 7.512 2.44C8.728 2.248 9.888 2.88 10.608 3.88C11.552 5.184 11.272 6.584 10.456 7.4Z" fill="#F9F9F9" fill-opacity="0.5"/>
</svg>
