<svg width="16" height="12" viewBox="0 0 16 12" fill="none" xmlns="http://www.w3.org/2000/svg">
<path d="M8 0.545471C4.36364 0.545471 1.25818 2.80729 0 6.00002C1.25818 9.19274 4.36364 11.4546 8 11.4546C11.6364 11.4546 14.7418 9.19274 16 6.00002C14.7418 2.80729 11.6364 0.545471 8 0.545471ZM8 9.63638C5.99273 9.63638 4.36364 8.00729 4.36364 6.00002C4.36364 3.99274 5.99273 2.36365 8 2.36365C10.0073 2.36365 11.6364 3.99274 11.6364 6.00002C11.6364 8.00729 10.0073 9.63638 8 9.63638ZM8 3.8182C6.79273 3.8182 5.81818 4.79274 5.81818 6.00002C5.81818 7.20729 6.79273 8.18184 8 8.18184C9.20727 8.18184 10.1818 7.20729 10.1818 6.00002C10.1818 4.79274 9.20727 3.8182 8 3.8182Z" fill="#F9F9F9"/>
</svg>
