<svg width="17" height="16" viewBox="0 0 17 16" fill="none" xmlns="http://www.w3.org/2000/svg">
<path d="M3.33203 0C2.77891 0 2.33203 0.446875 2.33203 1C2.33203 1.55313 2.77891 2 3.33203 2V2.34375C3.33203 3.66875 3.86016 4.94063 4.79766 5.87813L6.91641 8L4.79766 10.1219C3.86016 11.0594 3.33203 12.3313 3.33203 13.6562V14C2.77891 14 2.33203 14.4469 2.33203 15C2.33203 15.5531 2.77891 16 3.33203 16H4.33203H12.332H13.332C13.8852 16 14.332 15.5531 14.332 15C14.332 14.4469 13.8852 14 13.332 14V13.6562C13.332 12.3313 12.8039 11.0594 11.8664 10.1219L9.74766 8L11.8695 5.87813C12.807 4.94063 13.3352 3.66875 13.3352 2.34375V2C13.8883 2 14.3352 1.55313 14.3352 1C14.3352 0.446875 13.8883 0 13.3352 0H12.332H4.33203H3.33203ZM5.33203 2.34375V2H11.332V2.34375C11.332 2.9375 11.157 3.5125 10.832 4H5.83203C5.51016 3.5125 5.33203 2.9375 5.33203 2.34375ZM5.83203 12C5.94141 11.8344 6.06953 11.6781 6.21016 11.5344L8.33203 9.41562L10.4539 11.5375C10.5977 11.6813 10.7227 11.8375 10.832 12.0031L5.83203 12Z" fill="#F9F9F9"/>
</svg>
