<svg width="17" height="16" viewBox="0 0 17 16" fill="none" xmlns="http://www.w3.org/2000/svg">
<path opacity="0.89" d="M8.33203 4C8.77203 4 9.13203 4.36 9.13203 4.8V8C9.13203 8.44 8.77203 8.8 8.33203 8.8C7.89203 8.8 7.53203 8.44 7.53203 8V4.8C7.53203 4.36 7.89203 4 8.33203 4ZM8.32403 0C3.90803 0 0.332031 3.584 0.332031 8C0.332031 12.416 3.90803 16 8.32403 16C12.748 16 16.332 12.416 16.332 8C16.332 3.584 12.748 0 8.32403 0ZM8.33203 14.4C4.79603 14.4 1.93203 11.536 1.93203 8C1.93203 4.464 4.79603 1.6 8.33203 1.6C11.868 1.6 14.732 4.464 14.732 8C14.732 11.536 11.868 14.4 8.33203 14.4ZM9.13203 12H7.53203V10.4H9.13203V12Z" fill="#F9F9F9"/>
</svg>
