<svg width="24" height="24" viewBox="0 0 24 24" fill="none" xmlns="http://www.w3.org/2000/svg">
<path d="M11.3435 0.0212756C6.12887 0.359465 2.17969 4.93048 2.17969 10.1561V17.4544C2.17969 19.2653 3.64154 20.7272 5.45249 20.7272H6.54342C7.74345 20.7272 8.72529 19.7454 8.72529 18.5453V14.1816C8.72529 12.9816 7.74345 11.9997 6.54342 11.9997H4.36156V10.1342C4.36156 5.94505 7.59072 2.30133 11.769 2.18132C16.1 2.06132 19.6346 5.51958 19.6346 9.81786V11.9997H17.4528C16.2527 11.9997 15.2709 12.9816 15.2709 14.1816V18.5453C15.2709 19.7454 16.2527 20.7272 17.4528 20.7272H19.6346V21.8181H13.089C12.489 21.8181 11.9981 22.3091 11.9981 22.9091C11.9981 23.5091 12.489 24 13.089 24H18.5437C20.3546 24 21.8165 22.5381 21.8165 20.7272V9.81786C21.8165 4.17773 17.06 -0.349642 11.3435 0.0212756Z" fill="#F9F9F9"/>
</svg>
