<svg width="24" height="24" viewBox="0 0 24 24" fill="none" xmlns="http://www.w3.org/2000/svg">
<path d="M23.0213 0.0122451C22.8621 0.0122451 22.7029 0.0734694 22.5927 0.195918L21.6254 1.16327C21.3805 1.40816 21.0009 1.40816 20.756 1.16327L19.7886 0.195918C19.5437 -0.0489796 19.1641 -0.0489796 18.9192 0.195918L17.9519 1.16327C17.707 1.40816 17.3274 1.40816 17.0825 1.16327L16.1152 0.195918C15.8703 -0.0489796 15.4907 -0.0489796 15.2458 0.195918L14.2784 1.16327C14.0335 1.40816 13.6539 1.40816 13.409 1.16327L12.4417 0.195918C12.1968 -0.0489796 11.8172 -0.0489796 11.5723 0.195918L10.605 1.16327C10.3601 1.40816 9.98047 1.40816 9.73557 1.16327L8.75598 0.183673C8.51108 -0.0612245 8.13149 -0.0612245 7.88659 0.183673L6.91924 1.16327C6.67435 1.40816 6.29475 1.40816 6.04986 1.16327L5.08251 0.183673C4.83761 -0.0612245 4.45802 -0.0612245 4.21312 0.183673L3.24577 1.16327C3.00088 1.40816 2.62128 1.40816 2.37639 1.16327L1.40904 0.183673C1.29884 0.0734694 1.13965 0.0122451 0.980469 0.0122451V24C1.13965 24 1.29884 23.9388 1.40904 23.8163L2.37639 22.849C2.62128 22.6041 3.00088 22.6041 3.24577 22.849L4.21312 23.8163C4.45802 24.0612 4.83761 24.0612 5.08251 23.8163L6.04986 22.849C6.29475 22.6041 6.67435 22.6041 6.91924 22.849L7.88659 23.8163C8.13149 24.0612 8.51108 24.0612 8.75598 23.8163L9.72333 22.849C9.96822 22.6041 10.3478 22.6041 10.5927 22.849L11.5601 23.8163C11.805 24.0612 12.1846 24.0612 12.4294 23.8163L13.3968 22.849C13.6417 22.6041 14.0213 22.6041 14.2662 22.849L15.2335 23.8163C15.4784 24.0612 15.858 24.0612 16.1029 23.8163L17.0703 22.849C17.3152 22.6041 17.6948 22.6041 17.9397 22.849L18.907 23.8163C19.1519 24.0612 19.5315 24.0612 19.7764 23.8163L20.7437 22.849C20.9886 22.6041 21.3682 22.6041 21.6131 22.849L22.5805 23.8163C22.7029 23.9388 22.8621 24 23.009 24V0.0122451H23.0213ZM18.1233 18.1224H5.87843C5.20496 18.1224 4.65394 17.5714 4.65394 16.898C4.65394 16.2245 5.20496 15.6735 5.87843 15.6735H18.1233C18.7968 15.6735 19.3478 16.2245 19.3478 16.898C19.3478 17.5714 18.7968 18.1224 18.1233 18.1224ZM18.1233 13.2245H5.87843C5.20496 13.2245 4.65394 12.6735 4.65394 12C4.65394 11.3265 5.20496 10.7755 5.87843 10.7755H18.1233C18.7968 10.7755 19.3478 11.3265 19.3478 12C19.3478 12.6735 18.7968 13.2245 18.1233 13.2245ZM18.1233 8.32653H5.87843C5.20496 8.32653 4.65394 7.77551 4.65394 7.10204C4.65394 6.42857 5.20496 5.87755 5.87843 5.87755H18.1233C18.7968 5.87755 19.3478 6.42857 19.3478 7.10204C19.3478 7.77551 18.7968 8.32653 18.1233 8.32653Z" fill="#F9F9F9"/>
</svg>
