<svg width="24" height="24" viewBox="0 0 24 24" fill="none" xmlns="http://www.w3.org/2000/svg">
<path d="M18.9789 2.964C18.8829 2.964 18.7869 2.94 18.7029 2.892C16.3989 1.704 14.4069 1.2 12.0189 1.2C9.64292 1.2 7.38692 1.764 5.33492 2.892C5.04692 3.048 4.68692 2.94 4.51892 2.652C4.36292 2.364 4.47092 1.992 4.75892 1.836C6.99092 0.624 9.43892 0 12.0189 0C14.5749 0 16.8069 0.564 19.2549 1.824C19.5549 1.98 19.6629 2.34 19.5069 2.628C19.3989 2.844 19.1949 2.964 18.9789 2.964ZM1.80692 9.264C1.68692 9.264 1.56692 9.228 1.45892 9.156C1.18292 8.964 1.12292 8.592 1.31492 8.316C2.50292 6.636 4.01492 5.316 5.81492 4.392C9.58292 2.448 14.4069 2.436 18.1869 4.38C19.9869 5.304 21.4989 6.612 22.6869 8.28C22.8789 8.544 22.8189 8.928 22.5429 9.12C22.2669 9.312 21.8949 9.252 21.7029 8.976C20.6229 7.464 19.2549 6.276 17.6349 5.448C14.1909 3.684 9.78692 3.684 6.35492 5.46C4.72292 6.3 3.35492 7.5 2.27492 9.012C2.17892 9.18 1.99892 9.264 1.80692 9.264ZM9.30692 23.748C9.15092 23.748 8.99492 23.688 8.88692 23.568C7.84292 22.524 7.27892 21.852 6.47492 20.4C5.64692 18.924 5.21492 17.124 5.21492 15.192C5.21492 11.628 8.26292 8.724 12.0069 8.724C15.7509 8.724 18.7989 11.628 18.7989 15.192C18.7989 15.528 18.5349 15.792 18.1989 15.792C17.8629 15.792 17.5989 15.528 17.5989 15.192C17.5989 12.288 15.0909 9.924 12.0069 9.924C8.92292 9.924 6.41492 12.288 6.41492 15.192C6.41492 16.92 6.79892 18.516 7.53092 19.812C8.29892 21.192 8.82692 21.78 9.75092 22.716C9.97892 22.956 9.97892 23.328 9.75092 23.568C9.61892 23.688 9.46292 23.748 9.30692 23.748ZM17.9109 21.528C16.4829 21.528 15.2229 21.168 14.1909 20.46C12.4029 19.248 11.3349 17.28 11.3349 15.192C11.3349 14.856 11.5989 14.592 11.9349 14.592C12.2709 14.592 12.5349 14.856 12.5349 15.192C12.5349 16.884 13.3989 18.48 14.8629 19.464C15.7149 20.04 16.7109 20.316 17.9109 20.316C18.1989 20.316 18.6789 20.28 19.1589 20.196C19.4829 20.136 19.7949 20.352 19.8549 20.688C19.9149 21.012 19.6989 21.324 19.3629 21.384C18.6789 21.516 18.0789 21.528 17.9109 21.528ZM15.4989 24C15.4509 24 15.3909 23.988 15.3429 23.976C13.4349 23.448 12.1869 22.74 10.8789 21.456C9.19892 19.788 8.27492 17.568 8.27492 15.192C8.27492 13.248 9.93092 11.664 11.9709 11.664C14.0109 11.664 15.6669 13.248 15.6669 15.192C15.6669 16.476 16.7829 17.52 18.1629 17.52C19.5429 17.52 20.6589 16.476 20.6589 15.192C20.6589 10.668 16.7589 6.996 11.9589 6.996C8.55092 6.996 5.43092 8.892 4.02692 11.832C3.55892 12.804 3.31892 13.944 3.31892 15.192C3.31892 16.128 3.40292 17.604 4.12292 19.524C4.24292 19.836 4.08692 20.184 3.77492 20.292C3.46292 20.412 3.11492 20.244 3.00692 19.944C2.41892 18.372 2.13092 16.812 2.13092 15.192C2.13092 13.752 2.40692 12.444 2.94692 11.304C4.54292 7.956 8.08292 5.784 11.9589 5.784C17.4189 5.784 21.8589 9.996 21.8589 15.18C21.8589 17.124 20.2029 18.708 18.1629 18.708C16.1229 18.708 14.4669 17.124 14.4669 15.18C14.4669 13.896 13.3509 12.852 11.9709 12.852C10.5909 12.852 9.47492 13.896 9.47492 15.18C9.47492 17.232 10.2669 19.152 11.7189 20.592C12.8589 21.72 13.9509 22.344 15.6429 22.812C15.9669 22.896 16.1469 23.232 16.0629 23.544C16.0029 23.82 15.7509 24 15.4989 24Z" fill="#F9F9F9"/>
</svg>
