<svg width="25" height="24" viewBox="0 0 25 24" fill="none" xmlns="http://www.w3.org/2000/svg">
<path d="M22.4862 1.09375H2.84979C1.64979 1.09375 0.667969 2.07557 0.667969 3.27557V16.3665C0.667969 17.5665 1.64979 18.5483 2.84979 18.5483H10.4862V20.7301H9.39524C8.79524 20.7301 8.30433 21.221 8.30433 21.821C8.30433 22.421 8.79524 22.9119 9.39524 22.9119H15.9407C16.5407 22.9119 17.0316 22.421 17.0316 21.821C17.0316 21.221 16.5407 20.7301 15.9407 20.7301H14.8498V18.5483H22.4862C23.6862 18.5483 24.668 17.5665 24.668 16.3665V3.27557C24.668 2.07557 23.6862 1.09375 22.4862 1.09375ZM21.3952 16.3665H3.9407C3.3407 16.3665 2.84979 15.8756 2.84979 15.2756V4.36648C2.84979 3.76648 3.3407 3.27557 3.9407 3.27557H21.3952C21.9952 3.27557 22.4862 3.76648 22.4862 4.36648V15.2756C22.4862 15.8756 21.9952 16.3665 21.3952 16.3665Z" fill="#F9F9F9"/>
</svg>
