<svg width="24" height="24" viewBox="0 0 24 24" fill="none" xmlns="http://www.w3.org/2000/svg">
<path d="M14.3984 8.4H9.59844C8.93844 8.4 8.39844 7.86 8.39844 7.2C8.39844 6.54 8.93844 6 9.59844 6H14.3984C15.0584 6 15.5984 6.54 15.5984 7.2C15.5984 7.86 15.0584 8.4 14.3984 8.4Z" fill="#F9F9F9"/>
<path d="M14.3984 12.0016H9.59844C8.93844 12.0016 8.39844 11.4616 8.39844 10.8016C8.39844 10.1416 8.93844 9.60156 9.59844 9.60156H14.3984C15.0584 9.60156 15.5984 10.1416 15.5984 10.8016C15.5984 11.4616 15.0584 12.0016 14.3984 12.0016Z" fill="#F9F9F9"/>
<path d="M20.9992 1.8L19.1992 0L17.3992 1.8L15.5992 0L13.7992 1.8L11.9992 0L10.1992 1.8L8.39922 0L6.59922 1.8L4.79922 0V16.8H2.39922C1.73922 16.8 1.19922 17.34 1.19922 18V20.4C1.19922 22.392 2.80722 24 4.79922 24H19.1992C21.1912 24 22.7992 22.392 22.7992 20.4V0L20.9992 1.8ZM15.5992 21.6H4.79922C4.13922 21.6 3.59922 21.06 3.59922 20.4V19.2H7.19922H11.9992H15.5992V21.6ZM20.3992 20.4C20.3992 21.06 19.8592 21.6 19.1992 21.6C18.5392 21.6 17.9992 21.06 17.9992 20.4V18C17.9992 17.34 17.4592 16.8 16.7992 16.8H14.3992H11.9992H7.19922V3.6H20.3992V20.4Z" fill="#F9F9F9"/>
<path d="M18.0008 8.4C18.6635 8.4 19.2008 7.86274 19.2008 7.2C19.2008 6.53726 18.6635 6 18.0008 6C17.338 6 16.8008 6.53726 16.8008 7.2C16.8008 7.86274 17.338 8.4 18.0008 8.4Z" fill="#F9F9F9"/>
<path d="M18.0008 12.0016C18.6635 12.0016 19.2008 11.4643 19.2008 10.8016C19.2008 10.1388 18.6635 9.60156 18.0008 9.60156C17.338 9.60156 16.8008 10.1388 16.8008 10.8016C16.8008 11.4643 17.338 12.0016 18.0008 12.0016Z" fill="#F9F9F9"/>
</svg>
