<svg width="24" height="24" viewBox="0 0 24 24" fill="none" xmlns="http://www.w3.org/2000/svg">
<path d="M15.5668 9.57432L10.2284 14.9369L8.28723 12.9957C7.93539 12.6439 7.35302 12.6439 7.00117 12.9957C6.64933 13.3476 6.64933 13.9299 7.00117 14.2818L9.57329 16.8539C9.92513 17.2057 10.5075 17.2057 10.8593 16.8539L16.8529 10.8604C17.2047 10.5085 17.2047 9.92617 16.8529 9.57432C16.501 9.22247 15.9186 9.22247 15.5668 9.57432ZM23.1376 3.38669L19.4007 0.280737C18.8911 -0.143904 18.1268 -0.0832415 17.69 0.438461C17.2654 0.948031 17.3382 1.71239 17.8477 2.14916L21.5724 5.25511C22.082 5.67975 22.8464 5.61909 23.2831 5.09738C23.7199 4.58782 23.6471 3.82346 23.1376 3.38669ZM2.41505 5.25511L6.13976 2.14916C6.66146 1.71239 6.73426 0.948031 6.29748 0.438461C5.87284 -0.0832415 5.10849 -0.143904 4.59892 0.280737L0.862073 3.38669C0.352503 3.82346 0.279708 4.58782 0.716482 5.09738C1.14112 5.61909 1.90548 5.67975 2.41505 5.25511ZM11.9998 2.16129C5.9699 2.16129 1.08046 7.05074 1.08046 13.0806C1.08046 19.1106 5.9699 24 11.9998 24C18.0297 24 22.9192 19.1106 22.9192 13.0806C22.9192 7.05074 18.0297 2.16129 11.9998 2.16129ZM11.9998 21.5735C7.31662 21.5735 3.50698 17.7638 3.50698 13.0806C3.50698 8.39746 7.31662 4.58782 11.9998 4.58782C16.683 4.58782 20.4926 8.39746 20.4926 13.0806C20.4926 17.7638 16.683 21.5735 11.9998 21.5735Z" fill="#F9F9F9"/>
</svg>
