<svg width="25" height="24" viewBox="0 0 25 24" fill="none" xmlns="http://www.w3.org/2000/svg">
<path d="M20.832 6.36458V2.36458C20.832 1.63125 20.232 1.03125 19.4987 1.03125H6.16536C5.43203 1.03125 4.83203 1.63125 4.83203 2.36458V6.36458H20.832Z" fill="#F9F9F9"/>
<path d="M21.232 7.36719H4.43203C2.44003 7.36719 0.832031 8.97519 0.832031 10.9672V16.9672C0.832031 17.6272 1.37203 18.1672 2.03203 18.1672H5.63203V20.5672C5.63203 21.8872 6.71203 22.9672 8.03203 22.9672H17.632C18.952 22.9672 20.032 21.8872 20.032 20.5672V18.1672H23.632C24.292 18.1672 24.832 17.6272 24.832 16.9672V10.9672C24.832 8.97519 23.224 7.36719 21.232 7.36719ZM17.632 20.5672H8.03203V15.7672H17.632V20.5672ZM20.032 12.7672C19.372 12.7672 18.832 12.2272 18.832 11.5672C18.832 10.9072 19.372 10.3672 20.032 10.3672C20.692 10.3672 21.232 10.9072 21.232 11.5672C21.232 12.2272 20.692 12.7672 20.032 12.7672Z" fill="#F9F9F9"/>
</svg>
