<svg width="24" height="24" viewBox="0 0 24 24" fill="none" xmlns="http://www.w3.org/2000/svg">
<path d="M24 3.75C24 4.59375 23.3297 5.37187 22.2 6C20.8359 6.75469 18.8016 7.28906 16.4672 7.44844C16.2937 7.36406 16.1203 7.28437 15.9375 7.21406C14.0906 6.44062 11.6344 6 9 6C8.61094 6 8.23125 6.00938 7.85156 6.02813L7.8 6C6.67031 5.37187 6 4.59375 6 3.75C6 1.67812 10.0312 0 15 0C19.9688 0 24 1.67812 24 3.75ZM7.53281 7.55156C8.01094 7.51875 8.50313 7.5 9 7.5C11.9156 7.5 14.5031 8.07656 16.1484 8.97187C17.3109 9.60469 18 10.3922 18 11.25C18 11.4375 17.9672 11.6203 17.9016 11.7984C17.6859 12.4172 17.1047 12.9844 16.2609 13.4625C16.2563 13.4672 16.2469 13.4672 16.2422 13.4719C16.2281 13.4812 16.2141 13.4859 16.2 13.4953C14.5594 14.4047 11.9438 14.9953 9 14.9953C6.20625 14.9953 3.70781 14.4656 2.05312 13.6312C1.96406 13.5891 1.87969 13.5422 1.79531 13.4953C0.670312 12.8719 0 12.0938 0 11.25C0 9.61875 2.50313 8.22656 6 7.71563C6.49219 7.64531 7.00312 7.58906 7.53281 7.55156ZM19.5 11.25C19.5 10.2234 19.0031 9.37969 18.3703 8.74688C19.6969 8.54063 20.9109 8.2125 21.9422 7.78594C22.7063 7.46719 23.4188 7.07344 24 6.59063V8.25C24 9.15469 23.2266 9.98906 21.9469 10.6359C21.2625 10.9828 20.4281 11.2781 19.4906 11.5031C19.4953 11.4187 19.5 11.3391 19.5 11.2547V11.25ZM18 15.75C18 16.5938 17.3297 17.3719 16.2 18C16.1156 18.0469 16.0312 18.0891 15.9422 18.1359C14.2922 18.9703 11.7937 19.5 9 19.5C6.05625 19.5 3.44063 18.9094 1.8 18C0.670313 17.3719 0 16.5938 0 15.75V14.0906C0.585938 14.5734 1.29375 14.9672 2.05781 15.2859C3.90938 16.0594 6.36562 16.5 9 16.5C11.6344 16.5 14.0906 16.0594 15.9422 15.2859C16.3078 15.1359 16.6594 14.9625 16.9922 14.775C17.2781 14.6156 17.5453 14.4375 17.7984 14.25C17.8688 14.1984 17.9344 14.1422 18 14.0906V14.25V14.5172V15.75ZM19.5 15.75V14.25V13.0359C20.3906 12.8391 21.2109 12.5906 21.9422 12.2859C22.7063 11.9672 23.4188 11.5734 24 11.0906V12.75C24 13.2422 23.7656 13.7344 23.3016 14.1984C22.5375 14.9625 21.1922 15.5906 19.4906 15.9984C19.4953 15.9187 19.5 15.8344 19.5 15.75ZM9 21C11.6344 21 14.0906 20.5594 15.9422 19.7859C16.7063 19.4672 17.4188 19.0734 18 18.5906V20.25C18 22.3219 13.9688 24 9 24C4.03125 24 0 22.3219 0 20.25V18.5906C0.585938 19.0734 1.29375 19.4672 2.05781 19.7859C3.90938 20.5594 6.36562 21 9 21Z" fill="#F9F9F9"/>
</svg>
