<svg width="24" height="24" viewBox="0 0 24 24" fill="none" xmlns="http://www.w3.org/2000/svg">
<path d="M12.0024 0.0078125C11.2692 0.0078125 10.6693 0.607693 10.6693 1.34088V12.0054C10.6693 12.7386 11.2692 13.3385 12.0024 13.3385C12.7356 13.3385 13.3355 12.7386 13.3355 12.0054V1.34088C13.3355 0.607693 12.7356 0.0078125 12.0024 0.0078125ZM18.8544 3.82038C18.3345 4.34028 18.3478 5.15345 18.841 5.67335C20.3474 7.27303 21.2805 9.40594 21.3339 11.7655C21.4538 16.8711 17.228 21.2702 12.1224 21.3236C6.91008 21.4035 2.67092 17.2044 2.67092 12.0054C2.67092 9.55257 3.6174 7.32635 5.16376 5.66002C5.65699 5.14012 5.65699 4.32695 5.15043 3.82038C4.6172 3.28716 3.75071 3.30049 3.24414 3.84705C1.31119 5.89997 0.0981039 8.63276 0.00478919 11.6588C-0.18184 18.1642 5.11044 23.7897 11.6158 23.9897C18.4144 24.203 24 18.7507 24 11.9921C24 8.83272 22.7736 5.97995 20.774 3.84705C20.2674 3.30049 19.3876 3.28716 18.8544 3.82038Z" fill="#F9F9F9"/>
</svg>
