<svg width="25" height="24" viewBox="0 0 25 24" fill="none" xmlns="http://www.w3.org/2000/svg">
<path d="M12.5013 24C13.8551 24 14.9628 22.8923 14.9628 21.5385H10.0397C10.0397 22.8923 11.1351 24 12.5013 24ZM19.8859 16.6154V10.4615C19.8859 6.68308 17.8674 3.52 14.3474 2.68308V1.84615C14.3474 0.824615 13.5228 0 12.5013 0C11.4797 0 10.6551 0.824615 10.6551 1.84615V2.68308C7.1228 3.52 5.11665 6.67077 5.11665 10.4615V16.6154L3.52896 18.2031C2.75357 18.9785 3.29511 20.3077 4.3905 20.3077H20.5997C21.6951 20.3077 22.249 18.9785 21.4736 18.2031L19.8859 16.6154Z" fill="#F9F9F9"/>
</svg>
