<svg width="24" height="24" viewBox="0 0 24 24" fill="none" xmlns="http://www.w3.org/2000/svg">
<path d="M23.9818 9.24368L22.3043 3.25279C22.0647 2.77352 21.5854 2.41406 21.1062 2.41406H2.89385C2.41458 2.41406 1.9353 2.77352 1.81549 3.25279L0.0182198 9.24368C-0.101598 10.0824 0.377673 10.8013 1.2164 10.8013H3.85239L2.53439 20.2669C2.41458 20.9858 3.01367 21.5849 3.73257 21.5849C4.33166 21.5849 4.81093 21.1056 4.93075 20.5066L5.64966 15.594H18.4702L19.0693 20.5066C19.1891 21.1056 19.6683 21.5849 20.2674 21.5849C20.9863 21.5849 21.5854 20.9858 21.4656 20.2669L20.2674 10.8013H22.7836C23.6223 10.8013 24.1016 10.0824 23.9818 9.24368ZM5.64966 15.594L6.24875 10.8013H17.7513L18.3503 15.594" fill="#F9F9F9"/>
</svg>
