<svg width="97" height="96" viewBox="0 0 97 96" fill="none" xmlns="http://www.w3.org/2000/svg">
<path d="M48.5 0C22.004 0 0.5 21.504 0.5 48C0.5 74.496 22.004 96 48.5 96C74.996 96 96.5 74.496 96.5 48C96.5 21.504 74.996 0 48.5 0ZM48.5 86.4C27.332 86.4 10.1 69.168 10.1 48C10.1 26.832 27.332 9.6 48.5 9.6C69.668 9.6 86.9 26.832 86.9 48C86.9 69.168 69.668 86.4 48.5 86.4ZM43.7 67.2H53.3V76.8H43.7V67.2ZM51.428 19.392C41.54 17.952 32.804 24.048 30.164 32.784C29.3 35.568 31.412 38.4 34.34 38.4H35.3C37.268 38.4 38.852 37.008 39.524 35.184C41.06 30.912 45.62 27.984 50.564 29.04C55.124 30 58.484 34.464 58.1 39.12C57.62 45.552 50.324 46.944 46.34 52.944C46.34 52.992 46.292 52.992 46.292 53.04C46.244 53.136 46.196 53.184 46.148 53.28C45.716 54 45.284 54.816 44.948 55.68C44.9 55.824 44.804 55.92 44.756 56.064C44.708 56.16 44.708 56.256 44.66 56.4C44.084 58.032 43.7 60 43.7 62.4H53.3C53.3 60.384 53.828 58.704 54.644 57.264C54.74 57.12 54.788 56.976 54.884 56.832C55.268 56.16 55.748 55.536 56.228 54.96C56.276 54.912 56.324 54.816 56.372 54.768C56.852 54.192 57.38 53.664 57.956 53.136C62.564 48.768 68.804 45.216 67.508 36.048C66.356 27.696 59.78 20.64 51.428 19.392Z" fill="#F9F9F9"/>
</svg>
