<svg width="24" height="24" viewBox="0 0 24 24" fill="none" xmlns="http://www.w3.org/2000/svg">
<path d="M15.56 3.9974V9.9974C15.56 10.7307 14.96 11.3307 14.2267 11.3307H9.78667C9.05333 11.3307 8.45333 10.7307 8.45333 9.9974V3.9974C8.45333 3.26406 9.05333 2.66406 9.78667 2.66406H14.2267C14.96 2.66406 15.56 3.26406 15.56 3.9974ZM18.2267 11.3307H22.6667C23.4 11.3307 24 10.7307 24 9.9974V3.9974C24 3.26406 23.4 2.66406 22.6667 2.66406H18.2267C17.4933 2.66406 16.8933 3.26406 16.8933 3.9974V9.9974C16.8933 10.7307 17.48 11.3307 18.2267 11.3307ZM15.56 19.9974V13.9974C15.56 13.2641 14.96 12.6641 14.2267 12.6641H9.78667C9.05333 12.6641 8.45333 13.2641 8.45333 13.9974V19.9974C8.45333 20.7307 9.05333 21.3307 9.78667 21.3307H14.2267C14.96 21.3307 15.56 20.7307 15.56 19.9974ZM16.8933 13.9974V19.9974C16.8933 20.7307 17.4933 21.3307 18.2267 21.3307H22.6667C23.4 21.3307 24 20.7307 24 19.9974V13.9974C24 13.2641 23.4 12.6641 22.6667 12.6641H18.2267C17.48 12.6641 16.8933 13.2641 16.8933 13.9974ZM5.77333 12.6641H1.33333C0.6 12.6641 0 13.2641 0 13.9974V19.9974C0 20.7307 0.6 21.3307 1.33333 21.3307H5.77333C6.50667 21.3307 7.10667 20.7307 7.10667 19.9974V13.9974C7.10667 13.2641 6.52 12.6641 5.77333 12.6641ZM7.10667 9.9974V3.9974C7.10667 3.26406 6.50667 2.66406 5.77333 2.66406H1.33333C0.6 2.66406 0 3.26406 0 3.9974V9.9974C0 10.7307 0.6 11.3307 1.33333 11.3307H5.77333C6.52 11.3307 7.10667 10.7307 7.10667 9.9974Z" fill="#F9F9F9"/>
</svg>
