<svg width="40" height="40" viewBox="0 0 40 40" fill="none" xmlns="http://www.w3.org/2000/svg">
<rect width="40" height="40" rx="20" fill="#3D9E89"/>
<path d="M24 12H16C15.12 12 14.4 12.72 14.4 13.6V15.2C14.4 16.08 15.12 16.8 16 16.8H24C24.88 16.8 25.6 16.08 25.6 15.2V13.6C25.6 12.72 24.88 12 24 12ZM23.6 15.2H16.4C16.176 15.2 16 15.024 16 14.8V14C16 13.776 16.176 13.6 16.4 13.6H23.6C23.824 13.6 24 13.776 24 14V14.8C24 15.024 23.824 15.2 23.6 15.2ZM26.4 28H13.6C12.72 28 12 27.28 12 26.4V25.6H28V26.4C28 27.28 27.28 28 26.4 28ZM25.224 18.552C24.968 17.976 24.392 17.6 23.76 17.6H16.24C15.608 17.6 15.032 17.976 14.776 18.552L12 24.8H28L25.224 18.552ZM18 23.2H17.2C16.976 23.2 16.8 23.024 16.8 22.8C16.8 22.576 16.976 22.4 17.2 22.4H18C18.224 22.4 18.4 22.576 18.4 22.8C18.4 23.024 18.224 23.2 18 23.2ZM18 21.6H17.2C16.976 21.6 16.8 21.424 16.8 21.2C16.8 20.976 16.976 20.8 17.2 20.8H18C18.224 20.8 18.4 20.976 18.4 21.2C18.4 21.424 18.224 21.6 18 21.6ZM18 20H17.2C16.976 20 16.8 19.824 16.8 19.6C16.8 19.376 16.976 19.2 17.2 19.2H18C18.224 19.2 18.4 19.376 18.4 19.6C18.4 19.824 18.224 20 18 20ZM20.4 23.2H19.6C19.376 23.2 19.2 23.024 19.2 22.8C19.2 22.576 19.376 22.4 19.6 22.4H20.4C20.624 22.4 20.8 22.576 20.8 22.8C20.8 23.024 20.624 23.2 20.4 23.2ZM20.4 21.6H19.6C19.376 21.6 19.2 21.424 19.2 21.2C19.2 20.976 19.376 20.8 19.6 20.8H20.4C20.624 20.8 20.8 20.976 20.8 21.2C20.8 21.424 20.624 21.6 20.4 21.6ZM20.4 20H19.6C19.376 20 19.2 19.824 19.2 19.6C19.2 19.376 19.376 19.2 19.6 19.2H20.4C20.624 19.2 20.8 19.376 20.8 19.6C20.8 19.824 20.624 20 20.4 20ZM22.8 23.2H22C21.776 23.2 21.6 23.024 21.6 22.8C21.6 22.576 21.776 22.4 22 22.4H22.8C23.024 22.4 23.2 22.576 23.2 22.8C23.2 23.024 23.024 23.2 22.8 23.2ZM22.8 21.6H22C21.776 21.6 21.6 21.424 21.6 21.2C21.6 20.976 21.776 20.8 22 20.8H22.8C23.024 20.8 23.2 20.976 23.2 21.2C23.2 21.424 23.024 21.6 22.8 21.6ZM22.8 20H22C21.776 20 21.6 19.824 21.6 19.6C21.6 19.376 21.776 19.2 22 19.2H22.8C23.024 19.2 23.2 19.376 23.2 19.6C23.2 19.824 23.024 20 22.8 20Z" fill="#F9F9F9"/>
</svg>
