<svg width="33" height="32" viewBox="0 0 33 32" fill="none" xmlns="http://www.w3.org/2000/svg">
<path d="M17.8335 3.1146V3.69794C18.1891 3.76461 18.5335 3.84794 18.8446 3.93127C19.5558 4.12016 19.978 4.85351 19.7891 5.56462C19.6002 6.27574 18.8669 6.69797 18.1557 6.50908C17.5502 6.34797 16.9835 6.23685 16.478 6.2313C16.0724 6.22574 15.6613 6.32574 15.4002 6.47575C15.2835 6.54797 15.2279 6.60908 15.2057 6.64241C15.1891 6.67019 15.1668 6.70908 15.1668 6.79797C15.1668 6.81464 15.1668 6.82575 15.1668 6.83131C15.1779 6.84242 15.2168 6.89797 15.3502 6.97575C15.6724 7.1702 16.1502 7.3202 16.8724 7.53687L16.9224 7.55354C17.5391 7.73687 18.3613 7.98687 19.028 8.40354C19.7891 8.88133 20.478 9.67578 20.4947 10.898C20.5113 12.148 19.8613 13.0592 19.0113 13.5925C18.6391 13.8203 18.2391 13.9814 17.828 14.0814V14.6703C17.828 15.4092 17.2335 16.0036 16.4946 16.0036C15.7557 16.0036 15.1613 15.4092 15.1613 14.6703V14.0369C14.6335 13.9092 14.1501 13.7425 13.739 13.6036C13.6224 13.5647 13.5113 13.5258 13.4057 13.4925C12.7057 13.2592 12.3279 12.5036 12.5612 11.8036C12.7946 11.1036 13.5501 10.7258 14.2502 10.9591C14.3946 11.0091 14.5279 11.0536 14.6557 11.098C15.4113 11.3536 15.9557 11.5369 16.5391 11.5591C16.9835 11.5758 17.378 11.4702 17.6057 11.3314C17.7113 11.2647 17.7613 11.2091 17.7835 11.1702C17.8057 11.1369 17.8335 11.0702 17.828 10.9425V10.9313C17.828 10.8758 17.828 10.8147 17.6057 10.6758C17.2891 10.4758 16.8113 10.3202 16.1002 10.1036L15.9946 10.0702C15.3946 9.89245 14.6057 9.65356 13.9724 9.27022C13.2224 8.82022 12.5001 8.04799 12.4946 6.82019C12.489 5.54796 13.2113 4.67573 14.0335 4.18683C14.389 3.97572 14.7724 3.83127 15.1557 3.73127V3.1146C15.1557 2.3757 15.7502 1.78125 16.4891 1.78125C17.228 1.78125 17.8224 2.3757 17.8224 3.1146H17.8335ZM32.067 20.4648C32.7948 21.4537 32.5837 22.8426 31.5948 23.5704L24.5614 28.7538C23.2614 29.7093 21.6947 30.226 20.078 30.226H11.1668H2.2778C1.29445 30.226 0.5 29.4316 0.5 28.4482V24.8926C0.5 23.9093 1.29445 23.1148 2.2778 23.1148H4.32226L6.81674 21.1148C8.07786 20.1037 9.64454 19.5592 11.2612 19.5592H15.6113H16.5002H20.0558C21.0391 19.5592 21.8336 20.3537 21.8336 21.337C21.8336 22.3204 21.0391 23.1148 20.0558 23.1148H16.5002H15.6113C15.1224 23.1148 14.7224 23.5148 14.7224 24.0037C14.7224 24.4926 15.1224 24.8926 15.6113 24.8926H22.3113L28.9614 19.9926C29.9503 19.2648 31.3392 19.4759 32.067 20.4648ZM11.2557 23.1148H11.2057C11.2223 23.1148 11.239 23.1148 11.2557 23.1148Z" fill="#F9F9F9" fill-opacity="0.5"/>
</svg>
