<svg width="44" height="44" viewBox="0 0 44 44" fill="none" xmlns="http://www.w3.org/2000/svg">
<path d="M43.9428 21.9263C43.9428 9.88769 34.1818 0.134766 22.1431 0.134766C10.1045 0.134766 0.351562 9.89582 0.351562 21.9263C0.351562 33.9568 10.1126 43.7179 22.1431 43.7179C34.1736 43.7179 43.9428 33.9568 43.9428 21.9263Z" fill="#E20D18"/>
<path d="M23.5986 16.8506C23.5986 16.8506 18.9784 14.4266 17.9453 12.8485C20.2148 13.7921 23.4603 14.1419 24.7943 13.6538C26.1202 13.1658 25.2986 8.13068 24.1192 7.04883C25.5508 7.3986 28.0073 11.4413 28.2432 12.7265C29.4308 11.5959 31.5457 10.7092 34.7099 9.92834C30.9031 12.9299 29.8701 14.6462 30.0653 15.5816C32.4323 15.8338 36.0683 18.697 36.0683 19.8277C33.3678 17.5501 29.7643 18.2903 29.0729 18.7784C29.4146 20.9502 29.0078 24.7407 28.715 25.481C27.6332 22.8211 26.9987 20.8445 25.8192 19.5104C24.8919 18.4693 21.4268 22.4144 21.1746 23.1058C20.8899 22.2191 22.2239 18.0788 23.6067 16.8506H23.5986Z" fill="#F9F9F9"/>
</svg>
