<svg width="14" height="16" viewBox="0 0 14 16" fill="none" xmlns="http://www.w3.org/2000/svg">
<path d="M1.67014 14.2222C1.67014 15.2 2.47014 16 3.44792 16H10.559C11.5368 16 12.3368 15.2 12.3368 14.2222V3.55556H1.67014V14.2222ZM4.48792 8.52444C4.14125 8.17778 4.14125 7.61778 4.48792 7.27111C4.83458 6.92444 5.39458 6.92444 5.74125 7.27111L7.00347 8.52444L8.2568 7.27111C8.60347 6.92444 9.16347 6.92444 9.51014 7.27111C9.8568 7.61778 9.8568 8.17778 9.51014 8.52444L8.2568 9.77778L9.51014 11.0311C9.8568 11.3778 9.8568 11.9378 9.51014 12.2844C9.16347 12.6311 8.60347 12.6311 8.2568 12.2844L7.00347 11.0311L5.75014 12.2844C5.40347 12.6311 4.84347 12.6311 4.49681 12.2844C4.15014 11.9378 4.15014 11.3778 4.49681 11.0311L5.75014 9.77778L4.48792 8.52444ZM12.3368 0.888889H10.1146L9.48347 0.257778C9.32347 0.0977777 9.09236 0 8.86125 0H5.14569C4.91458 0 4.68347 0.0977777 4.52347 0.257778L3.89236 0.888889H1.67014C1.18125 0.888889 0.78125 1.28889 0.78125 1.77778C0.78125 2.26667 1.18125 2.66667 1.67014 2.66667H12.3368C12.8257 2.66667 13.2257 2.26667 13.2257 1.77778C13.2257 1.28889 12.8257 0.888889 12.3368 0.888889Z" fill="#F9F9F9"/>
</svg>
