<svg width="64" height="64" viewBox="0 0 64 64" fill="none" xmlns="http://www.w3.org/2000/svg">
<rect width="64" height="64" rx="8" fill="#F9F9F9" fill-opacity="0.1"/>
<path d="M23.1286 28.7142H26.195V38.3571C26.195 39.4178 27.0629 40.2857 28.1236 40.2857H35.838C36.8987 40.2857 37.7665 39.4178 37.7665 38.3571V28.7142H40.833C42.5494 28.7142 43.4173 26.6313 42.2023 25.4163L33.3501 16.5641C32.5979 15.812 31.3829 15.812 30.6308 16.5641L21.7786 25.4163C20.5636 26.6313 21.4122 28.7142 23.1286 28.7142ZM18.5 46.0714C18.5 47.1321 19.3679 48 20.4286 48H43.5716C44.6323 48 45.5001 47.1321 45.5001 46.0714C45.5001 45.0107 44.6323 44.1428 43.5716 44.1428H20.4286C19.3679 44.1428 18.5 45.0107 18.5 46.0714Z" fill="#F9F9F9"/>
</svg>
